ISO-10303-21;
HEADER;
FILE_DESCRIPTION (( 'STEP AP203' ),
    '1' );
FILE_NAME ('Çò½Â-¸Ë_up.STEP',
    '2026-05-15T05:12:38',
    ( '' ),
    ( '' ),
    'SwSTEP 2.0',
    'SolidWorks 2025',
    '' );
FILE_SCHEMA (( 'CONFIG_CONTROL_DESIGN' ));
ENDSEC;

DATA;
#1 = DATE_AND_TIME ( #280, #184 ) ;
#2 = VERTEX_POINT ( 'NONE', #58 ) ;
#3 = DATE_AND_TIME ( #166, #203 ) ;
#4 = ORIENTED_EDGE ( 'NONE', *, *, #193, .T. ) ;
#5 = DIRECTION ( 'NONE',  ( -0.000000000000000000, 1.000000000000000000, 2.922518491417003809E-16 ) ) ;
#6 = EDGE_CURVE ( 'NONE', #109, #57, #349, .T. ) ;
#7 = CARTESIAN_POINT ( 'NONE',  ( 7.960204194457811254E-16, -83.09999999999999432, -6.500000000000023981 ) ) ;
#8 = FACE_OUTER_BOUND ( 'NONE', #228, .T. ) ;
#9 = EDGE_CURVE ( 'NONE', #84, #51, #30, .T. ) ;
#10 = LINE ( 'NONE', #66, #234 ) ;
#11 = DIRECTION ( 'NONE',  ( -0.000000000000000000, -1.000000000000000000, -0.000000000000000000 ) ) ;
#12 = DIRECTION ( 'NONE',  ( 0.000000000000000000, 0.000000000000000000, 1.000000000000000000 ) ) ;
#13 = CARTESIAN_POINT ( 'NONE',  ( 0.000000000000000000, -82.47499999999999432, -2.428612866367529932E-14 ) ) ;
#14 = ADVANCED_FACE ( 'NONE', ( #87 ), #197, .T. ) ;
#15 = DIRECTION ( 'NONE',  ( 0.000000000000000000, 0.000000000000000000, -1.000000000000000000 ) ) ;
#16 = CARTESIAN_POINT ( 'NONE',  ( 0.000000000000000000, -83.09999999999999432, -2.428612866367529932E-14 ) ) ;
#17 = EDGE_LOOP ( 'NONE', ( #88, #168 ) ) ;
#18 = CIRCLE ( 'NONE', #195, 3.399999999999998135 ) ;
#19 =( NAMED_UNIT ( * ) PLANE_ANGLE_UNIT ( ) SI_UNIT ( $, .RADIAN. ) );
#20 = UNCERTAINTY_MEASURE_WITH_UNIT (LENGTH_MEASURE( 1.000000000000000082E-05 ), #185, 'distance_accuracy_value', 'NONE');
#21 = DIRECTION ( 'NONE',  ( -0.000000000000000000, -1.000000000000000000, -0.000000000000000000 ) ) ;
#22 = PERSON_AND_ORGANIZATION_ROLE ( 'classification_officer' ) ;
#23 = ORIENTED_EDGE ( 'NONE', *, *, #33, .F. ) ;
#24 = AXIS2_PLACEMENT_3D ( 'NONE', #256, #5, #253 ) ;
#25 = ORIENTED_EDGE ( 'NONE', *, *, #300, .F. ) ;
#26 = CALENDAR_DATE ( 2026, 15, 5 ) ;
#27 = CARTESIAN_POINT ( 'NONE',  ( 0.000000000000000000, -1.899637019421052205E-15, -5.551724316238306877E-31 ) ) ;
#28 = LOCAL_TIME ( 13, 12, 38.00000000000000000, #78 ) ;
#29 = ORIENTED_EDGE ( 'NONE', *, *, #46, .F. ) ;
#30 = CIRCLE ( 'NONE', #24, 6.500000000000000000 ) ;
#31 = PERSON_AND_ORGANIZATION_ROLE ( 'design_owner' ) ;
#32 = VERTEX_POINT ( 'NONE', #121 ) ;
#33 = EDGE_CURVE ( 'NONE', #281, #224, #254, .T. ) ;
#34 = LINE ( 'NONE', #338, #105 ) ;
#35 = CC_DESIGN_SECURITY_CLASSIFICATION ( #61, ( #146 ) ) ;
#36 = CARTESIAN_POINT ( 'NONE',  ( 0.000000000000000000, -83.09999999999999432, -2.428612866367529932E-14 ) ) ;
#37 = ADVANCED_FACE ( 'NONE', ( #208 ), #235, .F. ) ;
#38 = VECTOR ( 'NONE', #348, 1000.000000000000000 ) ;
#39 = DIRECTION ( 'NONE',  ( 0.000000000000000000, 0.000000000000000000, -1.000000000000000000 ) ) ;
#40 = CARTESIAN_POINT ( 'NONE',  ( 0.000000000000000000, -83.09999999999999432, -2.428612866367529932E-14 ) ) ;
#41 = CARTESIAN_POINT ( 'NONE',  ( 0.000000000000000000, -63.34999999999998721, -2.428612866367529932E-14 ) ) ;
#42 = EDGE_CURVE ( 'NONE', #272, #32, #202, .T. ) ;
#43 = DIRECTION ( 'NONE',  ( 0.000000000000000000, -2.922518491417003809E-16, 1.000000000000000000 ) ) ;
#44 = AXIS2_PLACEMENT_3D ( 'NONE', #352, #21, #212 ) ;
#45 = FACE_OUTER_BOUND ( 'NONE', #255, .T. ) ;
#46 = EDGE_CURVE ( 'NONE', #130, #2, #153, .T. ) ;
#47 = DIRECTION ( 'NONE',  ( 0.000000000000000000, 0.000000000000000000, -1.000000000000000000 ) ) ;
#48 = CC_DESIGN_DATE_AND_TIME_ASSIGNMENT ( #191, #86, ( #61 ) ) ;
#49 = FACE_OUTER_BOUND ( 'NONE', #303, .T. ) ;
#50 = CIRCLE ( 'NONE', #299, 3.399999999999995914 ) ;
#51 = VERTEX_POINT ( 'NONE', #7 ) ;
#52 = DATE_TIME_ROLE ( 'creation_date' ) ;
#53 = CARTESIAN_POINT ( 'NONE',  ( 0.000000000000000000, -1.899637019421052205E-15, -5.551724316238306877E-31 ) ) ;
#54 = CC_DESIGN_PERSON_AND_ORGANIZATION_ASSIGNMENT ( #220, #131, ( #315 ) ) ;
#55 = CC_DESIGN_APPROVAL ( #264, ( #61 ) ) ;
#56 = PERSON_AND_ORGANIZATION ( #179, #340 ) ;
#57 = VERTEX_POINT ( 'NONE', #262 ) ;
#58 = CARTESIAN_POINT ( 'NONE',  ( 4.163799117100998587E-16, -82.47499999999999432, 3.399999999999973710 ) ) ;
#59 = ADVANCED_FACE ( 'NONE', ( #65 ), #115, .T. ) ;
#60 = ORIENTED_EDGE ( 'NONE', *, *, #317, .F. ) ;
#61 = SECURITY_CLASSIFICATION ( '', '', #309 ) ;
#62 = DIRECTION ( 'NONE',  ( 1.000000000000000000, 0.000000000000000000, 0.000000000000000000 ) ) ;
#63 = ORIENTED_EDGE ( 'NONE', *, *, #259, .T. ) ;
#64 = CIRCLE ( 'NONE', #44, 4.025000000000000355 ) ;
#65 = FACE_OUTER_BOUND ( 'NONE', #167, .T. ) ;
#66 = CARTESIAN_POINT ( 'NONE',  ( 4.163799117100997108E-16, -83.09999999999999432, 3.399999999999972378 ) ) ;
#67 = DIRECTION ( 'NONE',  ( 0.000000000000000000, -2.922518491417003809E-16, 1.000000000000000000 ) ) ;
#68 = CARTESIAN_POINT ( 'NONE',  ( 0.000000000000000000, -82.47499999999999432, -2.428612866367529932E-14 ) ) ;
#69 = CC_DESIGN_DATE_AND_TIME_ASSIGNMENT ( #1, #52, ( #315 ) ) ;
#70 = FACE_OUTER_BOUND ( 'NONE', #107, .T. ) ;
#71 = CARTESIAN_POINT ( 'NONE',  ( 0.000000000000000000, -83.09999999999999432, -4.025000000000025224 ) ) ;
#72 = DIRECTION ( 'NONE',  ( -0.000000000000000000, -1.000000000000000000, -0.000000000000000000 ) ) ;
#73 = EDGE_CURVE ( 'NONE', #2, #226, #201, .T. ) ;
#74 = DIRECTION ( 'NONE',  ( 0.000000000000000000, 0.000000000000000000, -1.000000000000000000 ) ) ;
#75 = APPROVAL_PERSON_ORGANIZATION ( #56, #264, #276 ) ;
#76 = CARTESIAN_POINT ( 'NONE',  ( 0.000000000000000000, -83.09999999999999432, -2.428612866367529932E-14 ) ) ;
#77 = VECTOR ( 'NONE', #182, 1000.000000000000000 ) ;
#78 = COORDINATED_UNIVERSAL_TIME_OFFSET ( 8, 0, .AHEAD. ) ;
#79 = CARTESIAN_POINT ( 'NONE',  ( 0.000000000000000000, 0.000000000000000000, 0.000000000000000000 ) ) ;
#80 = ADVANCED_FACE ( 'NONE', ( #287 ), #174, .T. ) ;
#81 = ORIENTED_EDGE ( 'NONE', *, *, #356, .F. ) ;
#82 = LOCAL_TIME ( 13, 12, 38.00000000000000000, #247 ) ;
#83 = PERSON_AND_ORGANIZATION ( #179, #340 ) ;
#84 = VERTEX_POINT ( 'NONE', #313 ) ;
#85 = AXIS2_PLACEMENT_3D ( 'NONE', #263, #151, #12 ) ;
#86 = DATE_TIME_ROLE ( 'classification_date' ) ;
#87 = FACE_OUTER_BOUND ( 'NONE', #196, .T. ) ;
#88 = ORIENTED_EDGE ( 'NONE', *, *, #252, .T. ) ;
#89 = ORIENTED_EDGE ( 'NONE', *, *, #46, .T. ) ;
#90 = APPROVAL ( #215, 'æœª' ) ;
#91 = DIRECTION ( 'NONE',  ( 1.049727191138618819E-16, -0.5150380749100539335, 0.8571673007021124446 ) ) ;
#92 = CARTESIAN_POINT ( 'NONE',  ( 4.163799117100996122E-16, -63.34999999999998721, 3.399999999999971489 ) ) ;
#93 = AXIS2_PLACEMENT_3D ( 'NONE', #27, #346, #350 ) ;
#94 = DIRECTION ( 'NONE',  ( -0.000000000000000000, -1.000000000000000000, -0.000000000000000000 ) ) ;
#95 = AXIS2_PLACEMENT_3D ( 'NONE', #53, #137, #132 ) ;
#96 = AXIS2_PLACEMENT_3D ( 'NONE', #40, #72, #74 ) ;
#97 = DIRECTION ( 'NONE',  ( -0.000000000000000000, -1.000000000000000000, -0.000000000000000000 ) ) ;
#98 = CARTESIAN_POINT ( 'NONE',  ( 0.000000000000000000, -63.34999999999998721, -2.428612866367529932E-14 ) ) ;
#99 = DIRECTION ( 'NONE',  ( 6.982962677686266711E-15, -1.000000000000000000, 0.000000000000000000 ) ) ;
#100 = CARTESIAN_POINT ( 'NONE',  ( 4.929203366568097207E-16, -83.09999999999999432, 4.024999999999976374 ) ) ;
#101 = CARTESIAN_POINT ( 'NONE',  ( 0.000000000000000000, -83.09999999999999432, -4.025000000000025224 ) ) ;
#102 = ORIENTED_EDGE ( 'NONE', *, *, #300, .T. ) ;
#103 = DIRECTION ( 'NONE',  ( -0.000000000000000000, -1.000000000000000000, -0.000000000000000000 ) ) ;
#104 = COORDINATED_UNIVERSAL_TIME_OFFSET ( 8, 0, .AHEAD. ) ;
#105 = VECTOR ( 'NONE', #91, 1000.000000000000000 ) ;
#106 = CALENDAR_DATE ( 2026, 15, 5 ) ;
#107 = EDGE_LOOP ( 'NONE', ( #330, #29, #63, #4 ) ) ;
#108 = COORDINATED_UNIVERSAL_TIME_OFFSET ( 8, 0, .AHEAD. ) ;
#109 = VERTEX_POINT ( 'NONE', #291 ) ;
#110 = ORIENTED_EDGE ( 'NONE', *, *, #122, .T. ) ;
#111 = CC_DESIGN_PERSON_AND_ORGANIZATION_ASSIGNMENT ( #83, #31, ( #129 ) ) ;
#112 = AXIS2_PLACEMENT_3D ( 'NONE', #318, #94, #39 ) ;
#113 = ORIENTED_EDGE ( 'NONE', *, *, #308, .T. ) ;
#114 = VERTEX_POINT ( 'NONE', #92 ) ;
#115 = SPHERICAL_SURFACE ( 'NONE', #312, 7.750000000000000000 ) ;
#116 = DIRECTION ( 'NONE',  ( -0.000000000000000000, 1.000000000000000000, 2.922518491417003809E-16 ) ) ;
#117 = DIRECTION ( 'NONE',  ( 0.000000000000000000, 0.000000000000000000, -1.000000000000000000 ) ) ;
#118 = APPROVAL_PERSON_ORGANIZATION ( #278, #90, #358 ) ;
#119 = CARTESIAN_POINT ( 'NONE',  ( 4.929203366568097207E-16, -83.09999999999999432, 4.024999999999976374 ) ) ;
#120 = AXIS2_PLACEMENT_3D ( 'NONE', #160, #266, #123 ) ;
#121 = CARTESIAN_POINT ( 'NONE',  ( 0.000000000000000000, -63.34999999999998721, -3.400000000000020339 ) ) ;
#122 = EDGE_CURVE ( 'NONE', #32, #114, #50, .T. ) ;
#123 = DIRECTION ( 'NONE',  ( 0.000000000000000000, 0.000000000000000000, -1.000000000000000000 ) ) ;
#124 = PLANE ( 'NONE',  #290 ) ;
#125 = DIRECTION ( 'NONE',  ( -0.000000000000000000, 1.000000000000000000, 2.922518491417003809E-16 ) ) ;
#126 = CIRCLE ( 'NONE', #331, 4.025000000000000355 ) ;
#127 = ORIENTED_EDGE ( 'NONE', *, *, #176, .F. ) ;
#128 = DIRECTION ( 'NONE',  ( 0.000000000000000000, 0.000000000000000000, 1.000000000000000000 ) ) ;
#129 = PRODUCT ( '\X2\740394f0\X0\-\X2\6746\X0\_up', '\X2\740394f0\X0\-\X2\6746\X0\_up', '', ( #169 ) ) ;
#130 = VERTEX_POINT ( 'NONE', #171 ) ;
#131 = PERSON_AND_ORGANIZATION_ROLE ( 'creator' ) ;
#132 = DIRECTION ( 'NONE',  ( 0.000000000000000000, -2.922518491417003809E-16, 1.000000000000000000 ) ) ;
#133 = CIRCLE ( 'NONE', #181, 6.500000000000000000 ) ;
#134 = CALENDAR_DATE ( 2026, 15, 5 ) ;
#135 = ORIENTED_EDGE ( 'NONE', *, *, #6, .F. ) ;
#136 = EDGE_CURVE ( 'NONE', #51, #109, #144, .T. ) ;
#137 = DIRECTION ( 'NONE',  ( -0.000000000000000000, 1.000000000000000000, 2.922518491417003809E-16 ) ) ;
#138 = CIRCLE ( 'NONE', #213, 3.399999999999995914 ) ;
#139 = APPROVAL_ROLE ( '' ) ;
#140 = ORIENTED_EDGE ( 'NONE', *, *, #317, .T. ) ;
#141 = VECTOR ( 'NONE', #178, 1000.000000000000000 ) ;
#142 = APPLICATION_PROTOCOL_DEFINITION ( 'international standard', 'config_control_design', 1994, #294 ) ;
#143 = ORIENTED_EDGE ( 'NONE', *, *, #136, .T. ) ;
#144 = LINE ( 'NONE', #284, #216 ) ;
#145 = CIRCLE ( 'NONE', #93, 6.499999999999999112 ) ;
#146 = PRODUCT_DEFINITION_FORMATION_WITH_SPECIFIED_SOURCE ( 'ä»', '', #129, .NOT_KNOWN. ) ;
#147 = ADVANCED_FACE ( 'NONE', ( #258 ), #355, .F. ) ;
#148 = CARTESIAN_POINT ( 'NONE',  ( 0.000000000000000000, -63.34999999999998721, -3.400000000000020339 ) ) ;
#149 = AXIS2_PLACEMENT_3D ( 'NONE', #68, #11, #199 ) ;
#150 = PLANE ( 'NONE',  #175 ) ;
#151 = DIRECTION ( 'NONE',  ( 6.982962677686266711E-15, -1.000000000000000000, 0.000000000000000000 ) ) ;
#152 = DIRECTION ( 'NONE',  ( -0.000000000000000000, -1.000000000000000000, -0.000000000000000000 ) ) ;
#153 = CIRCLE ( 'NONE', #149, 3.399999999999998135 ) ;
#154 = CARTESIAN_POINT ( 'NONE',  ( 3.808651545348268472E-15, 1.329783579673954269E-29, 0.000000000000000000 ) ) ;
#155 = EDGE_CURVE ( 'NONE', #272, #114, #34, .T. ) ;
#156 = DIRECTION ( 'NONE',  ( -0.000000000000000000, 1.000000000000000000, 2.922518491417003809E-16 ) ) ;
#157 =( GEOMETRIC_REPRESENTATION_CONTEXT ( 3 ) GLOBAL_UNCERTAINTY_ASSIGNED_CONTEXT ( ( #20 ) ) GLOBAL_UNIT_ASSIGNED_CONTEXT ( ( #185, #19, #323 ) ) REPRESENTATION_CONTEXT ( 'NONE', 'WORKASPACE' ) );
#158 = LINE ( 'NONE', #270, #347 ) ;
#159 = EDGE_LOOP ( 'NONE', ( #127, #192, #102, #89 ) ) ;
#160 = CARTESIAN_POINT ( 'NONE',  ( 0.000000000000000000, -83.09999999999999432, -2.428612866367529932E-14 ) ) ;
#161 = ORIENTED_EDGE ( 'NONE', *, *, #242, .T. ) ;
#162 = PERSON_AND_ORGANIZATION ( #179, #340 ) ;
#163 = ORIENTED_EDGE ( 'NONE', *, *, #9, .T. ) ;
#164 = APPROVAL_STATUS ( 'not_yet_approved' ) ;
#165 = ORIENTED_EDGE ( 'NONE', *, *, #9, .F. ) ;
#166 = CALENDAR_DATE ( 2026, 15, 5 ) ;
#167 = EDGE_LOOP ( 'NONE', ( #328, #23 ) ) ;
#168 = ORIENTED_EDGE ( 'NONE', *, *, #33, .T. ) ;
#169 = MECHANICAL_CONTEXT ( 'NONE', #257, 'mechanical' ) ;
#170 = EDGE_LOOP ( 'NONE', ( #332, #311 ) ) ;
#171 = CARTESIAN_POINT ( 'NONE',  ( 0.000000000000000000, -82.47499999999999432, -3.400000000000022560 ) ) ;
#172 = ADVANCED_FACE ( 'NONE', ( #233, #319 ), #150, .T. ) ;
#173 = DIRECTION ( 'NONE',  ( -0.000000000000000000, -1.000000000000000000, -0.000000000000000000 ) ) ;
#174 = CYLINDRICAL_SURFACE ( 'NONE', #343, 6.499999999999999112 ) ;
#175 = AXIS2_PLACEMENT_3D ( 'NONE', #314, #341, #261 ) ;
#176 = EDGE_CURVE ( 'NONE', #114, #2, #10, .T. ) ;
#177 = CYLINDRICAL_SURFACE ( 'NONE', #96, 3.399999999999996803 ) ;
#178 = DIRECTION ( 'NONE',  ( 8.659560562354948882E-17, -0.7071067811865463515, 0.7071067811865487940 ) ) ;
#179 = PERSON ( 'æœª', 'æœª', 'æœª', ('æœª'), ('æœª'), ('æœª') ) ;
#180 = CARTESIAN_POINT ( 'NONE',  ( 0.000000000000000000, -83.09999999999999432, -3.400000000000021227 ) ) ;
#181 = AXIS2_PLACEMENT_3D ( 'NONE', #16, #295, #128 ) ;
#182 = DIRECTION ( 'NONE',  ( 0.000000000000000000, -0.7071067811865463515, -0.7071067811865487940 ) ) ;
#183 = LINE ( 'NONE', #180, #38 ) ;
#184 = LOCAL_TIME ( 13, 12, 38.00000000000000000, #108 ) ;
#185 =( LENGTH_UNIT ( ) NAMED_UNIT ( * ) SI_UNIT ( .MILLI., .METRE. ) );
#186 = AXIS2_PLACEMENT_3D ( 'NONE', #339, #97, #344 ) ;
#187 = ORIENTED_EDGE ( 'NONE', *, *, #176, .T. ) ;
#188 = DATE_AND_TIME ( #26, #28 ) ;
#189 = ORIENTED_EDGE ( 'NONE', *, *, #273, .T. ) ;
#190 = CC_DESIGN_APPROVAL ( #210, ( #315 ) ) ;
#191 = DATE_AND_TIME ( #106, #82 ) ;
#192 = ORIENTED_EDGE ( 'NONE', *, *, #122, .F. ) ;
#193 = EDGE_CURVE ( 'NONE', #357, #226, #126, .T. ) ;
#194 = DATE_AND_TIME ( #134, #286 ) ;
#195 = AXIS2_PLACEMENT_3D ( 'NONE', #13, #103, #15 ) ;
#196 = EDGE_LOOP ( 'NONE', ( #246, #248, #307, #135 ) ) ;
#197 = CYLINDRICAL_SURFACE ( 'NONE', #240, 6.499999999999999112 ) ;
#198 = DIRECTION ( 'NONE',  ( -0.000000000000000000, 1.000000000000000000, 2.922518491417003809E-16 ) ) ;
#199 = DIRECTION ( 'NONE',  ( 0.000000000000000000, 0.000000000000000000, -1.000000000000000000 ) ) ;
#200 = AXIS2_PLACEMENT_3D ( 'NONE', #241, #268, #297 ) ;
#201 = LINE ( 'NONE', #119, #141 ) ;
#202 = LINE ( 'NONE', #148, #325 ) ;
#203 = LOCAL_TIME ( 13, 12, 38.00000000000000000, #104 ) ;
#204 = ADVANCED_FACE ( 'NONE', ( #8 ), #177, .F. ) ;
#205 = CARTESIAN_POINT ( 'NONE',  ( 3.808651545348268472E-15, 1.329783579673954269E-29, 0.000000000000000000 ) ) ;
#206 = CLOSED_SHELL ( 'NONE', ( #269, #204, #147, #80, #59, #172, #236, #14, #302, #37, #267 ) ) ;
#207 = CIRCLE ( 'NONE', #223, 7.750000000000000000 ) ;
#208 = FACE_OUTER_BOUND ( 'NONE', #159, .T. ) ;
#209 = DIRECTION ( 'NONE',  ( -0.000000000000000000, -1.000000000000000000, -0.000000000000000000 ) ) ;
#210 = APPROVAL ( #353, 'æœª' ) ;
#211 = DIRECTION ( 'NONE',  ( -0.000000000000000000, -1.000000000000000000, -0.000000000000000000 ) ) ;
#212 = DIRECTION ( 'NONE',  ( 0.000000000000000000, 0.000000000000000000, -1.000000000000000000 ) ) ;
#213 = AXIS2_PLACEMENT_3D ( 'NONE', #271, #211, #321 ) ;
#214 = DESIGN_CONTEXT ( 'detailed design', #294, 'design' ) ;
#215 = APPROVAL_STATUS ( 'not_yet_approved' ) ;
#216 = VECTOR ( 'NONE', #288, 1000.000000000000000 ) ;
#217 = PERSON_AND_ORGANIZATION_ROLE ( 'creator' ) ;
#218 = PRODUCT_RELATED_PRODUCT_CATEGORY ( 'detail', '', ( #129 ) ) ;
#219 = EDGE_LOOP ( 'NONE', ( #359, #304, #110 ) ) ;
#220 = PERSON_AND_ORGANIZATION ( #179, #340 ) ;
#221 = ORIENTED_EDGE ( 'NONE', *, *, #6, .T. ) ;
#222 = PERSON_AND_ORGANIZATION ( #179, #340 ) ;
#223 = AXIS2_PLACEMENT_3D ( 'NONE', #154, #99, #239 ) ;
#224 = VERTEX_POINT ( 'NONE', #245 ) ;
#225 = APPROVAL_DATE_TIME ( #188, #90 ) ;
#226 = VERTEX_POINT ( 'NONE', #100 ) ;
#227 = CC_DESIGN_PERSON_AND_ORGANIZATION_ASSIGNMENT ( #329, #22, ( #61 ) ) ;
#228 = EDGE_LOOP ( 'NONE', ( #60, #187, #161, #25 ) ) ;
#229 = CARTESIAN_POINT ( 'NONE',  ( 0.000000000000000000, 0.000000000000000000, 0.000000000000000000 ) ) ;
#230 = DIRECTION ( 'NONE',  ( -0.000000000000000000, -1.000000000000000000, -0.000000000000000000 ) ) ;
#231 = DIRECTION ( 'NONE',  ( 0.000000000000000000, -2.922518491417003809E-16, 1.000000000000000000 ) ) ;
#232 = APPROVAL_PERSON_ORGANIZATION ( #222, #210, #139 ) ;
#233 = FACE_BOUND ( 'NONE', #335, .T. ) ;
#234 = VECTOR ( 'NONE', #173, 1000.000000000000000 ) ;
#235 = CYLINDRICAL_SURFACE ( 'NONE', #186, 3.399999999999996803 ) ;
#236 = ADVANCED_FACE ( 'NONE', ( #244, #45 ), #124, .F. ) ;
#237 = CARTESIAN_POINT ( 'NONE',  ( -5.292167275488726018E-15, -61.30707389530628859, -2.428612866367529932E-14 ) ) ;
#238 = AXIS2_PLACEMENT_3D ( 'NONE', #79, #326, #62 ) ;
#239 = DIRECTION ( 'NONE',  ( 0.000000000000000000, 0.000000000000000000, 1.000000000000000000 ) ) ;
#240 = AXIS2_PLACEMENT_3D ( 'NONE', #310, #198, #231 ) ;
#241 = CARTESIAN_POINT ( 'NONE',  ( 0.000000000000000000, -83.09999999999999432, -2.428612866367529932E-14 ) ) ;
#242 = EDGE_CURVE ( 'NONE', #2, #130, #18, .T. ) ;
#243 = ORIENTED_EDGE ( 'NONE', *, *, #308, .F. ) ;
#244 = FACE_BOUND ( 'NONE', #170, .T. ) ;
#245 = CARTESIAN_POINT ( 'NONE',  ( 3.808651545348268472E-15, 1.329783579673954269E-29, 7.750000000000000000 ) ) ;
#246 = ORIENTED_EDGE ( 'NONE', *, *, #136, .F. ) ;
#247 = COORDINATED_UNIVERSAL_TIME_OFFSET ( 8, 0, .AHEAD. ) ;
#248 = ORIENTED_EDGE ( 'NONE', *, *, #305, .T. ) ;
#249 = APPROVAL_DATE_TIME ( #194, #264 ) ;
#250 = EDGE_LOOP ( 'NONE', ( #163, #143, #243, #81 ) ) ;
#251 = APPROVAL_DATE_TIME ( #3, #210 ) ;
#252 = EDGE_CURVE ( 'NONE', #224, #281, #207, .T. ) ;
#253 = DIRECTION ( 'NONE',  ( 0.000000000000000000, 0.000000000000000000, 1.000000000000000000 ) ) ;
#254 = CIRCLE ( 'NONE', #85, 7.750000000000000000 ) ;
#255 = EDGE_LOOP ( 'NONE', ( #165, #351 ) ) ;
#256 = CARTESIAN_POINT ( 'NONE',  ( 0.000000000000000000, -83.09999999999999432, -2.428612866367529932E-14 ) ) ;
#257 = APPLICATION_CONTEXT ( 'configuration controlled 3d designs of mechanical parts and assemblies' ) ;
#258 = FACE_OUTER_BOUND ( 'NONE', #275, .T. ) ;
#259 = EDGE_CURVE ( 'NONE', #130, #357, #320, .T. ) ;
#260 = DIRECTION ( 'NONE',  ( 0.000000000000000000, 0.000000000000000000, -1.000000000000000000 ) ) ;
#261 = DIRECTION ( 'NONE',  ( 0.000000000000000000, 0.000000000000000000, 1.000000000000000000 ) ) ;
#262 = CARTESIAN_POINT ( 'NONE',  ( 0.000000000000000000, -3.799274038842104410E-15, 6.499999999999999112 ) ) ;
#263 = CARTESIAN_POINT ( 'NONE',  ( 3.808651545348268472E-15, 1.329783579673954269E-29, 0.000000000000000000 ) ) ;
#264 = APPROVAL ( #164, 'æœª' ) ;
#265 = CONICAL_SURFACE ( 'NONE', #200, 4.025000000000000355, 0.7853981633974500554 ) ;
#266 = DIRECTION ( 'NONE',  ( -0.000000000000000000, -1.000000000000000000, -0.000000000000000000 ) ) ;
#267 = ADVANCED_FACE ( 'NONE', ( #70 ), #282, .F. ) ;
#268 = DIRECTION ( 'NONE',  ( -0.000000000000000000, -1.000000000000000000, -0.000000000000000000 ) ) ;
#269 = ADVANCED_FACE ( 'NONE', ( #49 ), #265, .F. ) ;
#270 = CARTESIAN_POINT ( 'NONE',  ( 0.000000000000000000, -1.899637019421052205E-15, 6.499999999999999112 ) ) ;
#271 = CARTESIAN_POINT ( 'NONE',  ( 0.000000000000000000, -63.34999999999998721, -2.428612866367529932E-14 ) ) ;
#272 = VERTEX_POINT ( 'NONE', #237 ) ;
#273 = EDGE_CURVE ( 'NONE', #226, #357, #64, .T. ) ;
#274 = PERSON_AND_ORGANIZATION_ROLE ( 'design_supplier' ) ;
#275 = EDGE_LOOP ( 'NONE', ( #336, #279, #140 ) ) ;
#276 = APPROVAL_ROLE ( '' ) ;
#277 = ORIENTED_EDGE ( 'NONE', *, *, #259, .F. ) ;
#278 = PERSON_AND_ORGANIZATION ( #179, #340 ) ;
#279 = ORIENTED_EDGE ( 'NONE', *, *, #155, .T. ) ;
#280 = CALENDAR_DATE ( 2026, 15, 5 ) ;
#281 = VERTEX_POINT ( 'NONE', #322 ) ;
#282 = CONICAL_SURFACE ( 'NONE', #120, 4.025000000000000355, 0.7853981633974500554 ) ;
#283 = ORIENTED_EDGE ( 'NONE', *, *, #73, .T. ) ;
#284 = CARTESIAN_POINT ( 'NONE',  ( 7.960204194457794491E-16, 1.899637019421052205E-15, -6.499999999999999112 ) ) ;
#285 = CC_DESIGN_PERSON_AND_ORGANIZATION_ASSIGNMENT ( #162, #274, ( #146 ) ) ;
#286 = LOCAL_TIME ( 13, 12, 38.00000000000000000, #334 ) ;
#287 = FACE_OUTER_BOUND ( 'NONE', #250, .T. ) ;
#288 = DIRECTION ( 'NONE',  ( -0.000000000000000000, 1.000000000000000000, 2.922518491417003809E-16 ) ) ;
#289 = MANIFOLD_SOLID_BREP ( 'M8 \X2\87ba7eb95b54\X0\1', #206 ) ;
#290 = AXIS2_PLACEMENT_3D ( 'NONE', #76, #156, #43 ) ;
#291 = CARTESIAN_POINT ( 'NONE',  ( 7.960204194457794491E-16, 0.000000000000000000, -6.499999999999999112 ) ) ;
#292 = DIRECTION ( 'NONE',  ( 0.000000000000000000, -0.5150380749100539335, -0.8571673007021124446 ) ) ;
#293 = CC_DESIGN_APPROVAL ( #90, ( #146 ) ) ;
#294 = APPLICATION_CONTEXT ( 'configuration controlled 3d designs of mechanical parts and assemblies' ) ;
#295 = DIRECTION ( 'NONE',  ( -0.000000000000000000, 1.000000000000000000, 2.922518491417003809E-16 ) ) ;
#296 = CONICAL_SURFACE ( 'NONE', #337, 3.399999999999995914, 1.029744258676654756 ) ;
#297 = DIRECTION ( 'NONE',  ( 0.000000000000000000, 0.000000000000000000, -1.000000000000000000 ) ) ;
#298 = FACE_OUTER_BOUND ( 'NONE', #219, .T. ) ;
#299 = AXIS2_PLACEMENT_3D ( 'NONE', #41, #152, #117 ) ;
#300 = EDGE_CURVE ( 'NONE', #32, #130, #183, .T. ) ;
#301 = APPLICATION_PROTOCOL_DEFINITION ( 'international standard', 'config_control_design', 1994, #257 ) ;
#302 = ADVANCED_FACE ( 'NONE', ( #298 ), #296, .F. ) ;
#303 = EDGE_LOOP ( 'NONE', ( #354, #283, #189, #277 ) ) ;
#304 = ORIENTED_EDGE ( 'NONE', *, *, #42, .T. ) ;
#305 = EDGE_CURVE ( 'NONE', #51, #84, #133, .T. ) ;
#306 = SHAPE_DEFINITION_REPRESENTATION ( #333, #324 ) ;
#307 = ORIENTED_EDGE ( 'NONE', *, *, #356, .T. ) ;
#308 = EDGE_CURVE ( 'NONE', #57, #109, #145, .T. ) ;
#309 = SECURITY_CLASSIFICATION_LEVEL ( 'unclassified' ) ;
#310 = CARTESIAN_POINT ( 'NONE',  ( 0.000000000000000000, 0.000000000000000000, 0.000000000000000000 ) ) ;
#311 = ORIENTED_EDGE ( 'NONE', *, *, #273, .F. ) ;
#312 = AXIS2_PLACEMENT_3D ( 'NONE', #205, #342, #316 ) ;
#313 = CARTESIAN_POINT ( 'NONE',  ( 0.000000000000000000, -83.09999999999999432, 6.499999999999975131 ) ) ;
#314 = CARTESIAN_POINT ( 'NONE',  ( 3.808651545348268472E-15, 1.329783579673954269E-29, 0.000000000000000000 ) ) ;
#315 = PRODUCT_DEFINITION ( 'æœ', '', #146, #214 ) ;
#316 = DIRECTION ( 'NONE',  ( -1.000000000000000000, -6.982962677686266711E-15, 0.000000000000000000 ) ) ;
#317 = EDGE_CURVE ( 'NONE', #114, #32, #138, .T. ) ;
#318 = CARTESIAN_POINT ( 'NONE',  ( 0.000000000000000000, -63.34999999999998721, -2.428612866367529932E-14 ) ) ;
#319 = FACE_OUTER_BOUND ( 'NONE', #17, .T. ) ;
#320 = LINE ( 'NONE', #71, #77 ) ;
#321 = DIRECTION ( 'NONE',  ( 0.000000000000000000, 0.000000000000000000, -1.000000000000000000 ) ) ;
#322 = CARTESIAN_POINT ( 'NONE',  ( 2.859550276009069890E-15, 6.670297055599254656E-30, -7.750000000000000000 ) ) ;
#323 =( NAMED_UNIT ( * ) SI_UNIT ( $, .STERADIAN. ) SOLID_ANGLE_UNIT ( ) );
#324 = ADVANCED_BREP_SHAPE_REPRESENTATION ( '\X2\740394f0\X0\-\X2\6746\X0\_up', ( #289, #238 ), #157 ) ;
#325 = VECTOR ( 'NONE', #292, 1000.000000000000000 ) ;
#326 = DIRECTION ( 'NONE',  ( 0.000000000000000000, 0.000000000000000000, 1.000000000000000000 ) ) ;
#327 = PERSON_AND_ORGANIZATION ( #179, #340 ) ;
#328 = ORIENTED_EDGE ( 'NONE', *, *, #252, .F. ) ;
#329 = PERSON_AND_ORGANIZATION ( #179, #340 ) ;
#330 = ORIENTED_EDGE ( 'NONE', *, *, #73, .F. ) ;
#331 = AXIS2_PLACEMENT_3D ( 'NONE', #36, #230, #260 ) ;
#332 = ORIENTED_EDGE ( 'NONE', *, *, #193, .F. ) ;
#333 = PRODUCT_DEFINITION_SHAPE ( 'NONE', 'NONE',  #315 ) ;
#334 = COORDINATED_UNIVERSAL_TIME_OFFSET ( 8, 0, .AHEAD. ) ;
#335 = EDGE_LOOP ( 'NONE', ( #113, #221 ) ) ;
#336 = ORIENTED_EDGE ( 'NONE', *, *, #42, .F. ) ;
#337 = AXIS2_PLACEMENT_3D ( 'NONE', #98, #209, #47 ) ;
#338 = CARTESIAN_POINT ( 'NONE',  ( 4.163799117100996122E-16, -63.34999999999998721, 3.399999999999971489 ) ) ;
#339 = CARTESIAN_POINT ( 'NONE',  ( 0.000000000000000000, -83.09999999999999432, -2.428612866367529932E-14 ) ) ;
#340 = ORGANIZATION ( 'æœª', 'æœª', '' ) ;
#341 = DIRECTION ( 'NONE',  ( 6.982962677686266711E-15, -1.000000000000000000, 0.000000000000000000 ) ) ;
#342 = DIRECTION ( 'NONE',  ( -6.982962677686266711E-15, 1.000000000000000000, 0.000000000000000000 ) ) ;
#343 = AXIS2_PLACEMENT_3D ( 'NONE', #229, #116, #67 ) ;
#344 = DIRECTION ( 'NONE',  ( 0.000000000000000000, 0.000000000000000000, -1.000000000000000000 ) ) ;
#345 = CC_DESIGN_PERSON_AND_ORGANIZATION_ASSIGNMENT ( #327, #217, ( #146 ) ) ;
#346 = DIRECTION ( 'NONE',  ( -0.000000000000000000, 1.000000000000000000, 2.922518491417003809E-16 ) ) ;
#347 = VECTOR ( 'NONE', #125, 1000.000000000000000 ) ;
#348 = DIRECTION ( 'NONE',  ( -0.000000000000000000, -1.000000000000000000, -0.000000000000000000 ) ) ;
#349 = CIRCLE ( 'NONE', #95, 6.499999999999999112 ) ;
#350 = DIRECTION ( 'NONE',  ( 0.000000000000000000, -2.922518491417003809E-16, 1.000000000000000000 ) ) ;
#351 = ORIENTED_EDGE ( 'NONE', *, *, #305, .F. ) ;
#352 = CARTESIAN_POINT ( 'NONE',  ( 0.000000000000000000, -83.09999999999999432, -2.428612866367529932E-14 ) ) ;
#353 = APPROVAL_STATUS ( 'not_yet_approved' ) ;
#354 = ORIENTED_EDGE ( 'NONE', *, *, #242, .F. ) ;
#355 = CONICAL_SURFACE ( 'NONE', #112, 3.399999999999995914, 1.029744258676654756 ) ;
#356 = EDGE_CURVE ( 'NONE', #84, #57, #158, .T. ) ;
#357 = VERTEX_POINT ( 'NONE', #101 ) ;
#358 = APPROVAL_ROLE ( '' ) ;
#359 = ORIENTED_EDGE ( 'NONE', *, *, #155, .F. ) ;
ENDSEC;
END-ISO-10303-21;
