ISO-10303-21;
HEADER;
FILE_DESCRIPTION (( 'STEP AP203' ),
    '1' );
FILE_NAME ('Çò½Â-¸Ë_down.STEP',
    '2026-05-15T05:14:38',
    ( '' ),
    ( '' ),
    'SwSTEP 2.0',
    'SolidWorks 2025',
    '' );
FILE_SCHEMA (( 'CONFIG_CONTROL_DESIGN' ));
ENDSEC;

DATA;
#1 = DATE_AND_TIME ( #119, #232 ) ;
#2 = DIRECTION ( 'NONE',  ( 0.000000000000000000, 0.000000000000000000, 1.000000000000000000 ) ) ;
#3 = DIRECTION ( 'NONE',  ( -1.000000000000000000, -6.982962677686266711E-15, 0.000000000000000000 ) ) ;
#4 = ORIENTED_EDGE ( 'NONE', *, *, #122, .T. ) ;
#5 = CALENDAR_DATE ( 2026, 15, 5 ) ;
#6 = DIRECTION ( 'NONE',  ( 6.982962677686266711E-15, -1.000000000000000000, 0.000000000000000000 ) ) ;
#7 = EDGE_LOOP ( 'NONE', ( #127, #190, #91, #4 ) ) ;
#8 = DIRECTION ( 'NONE',  ( 0.000000000000000000, -3.002196072332422445E-16, 1.000000000000000000 ) ) ;
#9 = APPROVAL_ROLE ( '' ) ;
#10 = DIRECTION ( 'NONE',  ( 1.049727191138615121E-16, -0.5150380749100591515, 0.8571673007021093360 ) ) ;
#11 = ORIENTED_EDGE ( 'NONE', *, *, #44, .T. ) ;
#12 = PERSON_AND_ORGANIZATION ( #305, #331 ) ;
#13 = APPROVAL_PERSON_ORGANIZATION ( #341, #148, #235 ) ;
#14 = ORIENTED_EDGE ( 'NONE', *, *, #165, .F. ) ;
#15 = CC_DESIGN_DATE_AND_TIME_ASSIGNMENT ( #1, #181, ( #135 ) ) ;
#16 = CARTESIAN_POINT ( 'NONE',  ( 0.000000000000000000, -158.9000000000000341, -4.816607405760618718E-14 ) ) ;
#17 = CONICAL_SURFACE ( 'NONE', #114, 4.025000000000000355, 0.7853981633974611576 ) ;
#18 = CARTESIAN_POINT ( 'NONE',  ( 4.163799117100998587E-16, -158.2750000000000625, 3.399999999999949729 ) ) ;
#19 = DIRECTION ( 'NONE',  ( 0.000000000000000000, 0.000000000000000000, 1.000000000000000000 ) ) ;
#20 = ORIENTED_EDGE ( 'NONE', *, *, #69, .F. ) ;
#21 = LINE ( 'NONE', #111, #334 ) ;
#22 = EDGE_CURVE ( 'NONE', #343, #246, #107, .T. ) ;
#23 = DIRECTION ( 'NONE',  ( 0.000000000000000000, 0.000000000000000000, -1.000000000000000000 ) ) ;
#24 = DIRECTION ( 'NONE',  ( 0.000000000000000000, -3.002196072332422445E-16, 1.000000000000000000 ) ) ;
#25 = AXIS2_PLACEMENT_3D ( 'NONE', #174, #311, #2 ) ;
#26 = LINE ( 'NONE', #306, #216 ) ;
#27 = CC_DESIGN_PERSON_AND_ORGANIZATION_ASSIGNMENT ( #266, #269, ( #55 ) ) ;
#28 = AXIS2_PLACEMENT_3D ( 'NONE', #58, #175, #171 ) ;
#29 = AXIS2_PLACEMENT_3D ( 'NONE', #285, #133, #330 ) ;
#30 = EDGE_CURVE ( 'NONE', #110, #123, #100, .T. ) ;
#31 = PERSON_AND_ORGANIZATION ( #305, #331 ) ;
#32 = SPHERICAL_SURFACE ( 'NONE', #201, 7.750000000000000000 ) ;
#33 = AXIS2_PLACEMENT_3D ( 'NONE', #226, #80, #247 ) ;
#34 = APPROVAL_STATUS ( 'not_yet_approved' ) ;
#35 = CARTESIAN_POINT ( 'NONE',  ( 3.808651545348268472E-15, 1.329783579673954269E-29, 0.000000000000000000 ) ) ;
#36 = DIRECTION ( 'NONE',  ( -6.982962677686266711E-15, 1.000000000000000000, 0.000000000000000000 ) ) ;
#37 = APPROVAL_STATUS ( 'not_yet_approved' ) ;
#38 = DIRECTION ( 'NONE',  ( -0.000000000000000000, -1.000000000000000000, -0.000000000000000000 ) ) ;
#39 = COORDINATED_UNIVERSAL_TIME_OFFSET ( 8, 0, .AHEAD. ) ;
#40 = CARTESIAN_POINT ( 'NONE',  ( 0.000000000000000000, -158.9000000000000057, -4.770489558936219510E-14 ) ) ;
#41 = VERTEX_POINT ( 'NONE', #18 ) ;
#42 = CIRCLE ( 'NONE', #197, 3.399999999999998135 ) ;
#43 = ORIENTED_EDGE ( 'NONE', *, *, #268, .F. ) ;
#44 = EDGE_CURVE ( 'NONE', #125, #296, #323, .T. ) ;
#45 = DIRECTION ( 'NONE',  ( 0.000000000000000000, 0.000000000000000000, 1.000000000000000000 ) ) ;
#46 = DIRECTION ( 'NONE',  ( 0.000000000000000000, -3.002196072332422445E-16, 1.000000000000000000 ) ) ;
#47 = ORIENTED_EDGE ( 'NONE', *, *, #69, .T. ) ;
#48 = DIRECTION ( 'NONE',  ( -0.000000000000000000, -1.000000000000000000, -0.000000000000000000 ) ) ;
#49 = EDGE_LOOP ( 'NONE', ( #131, #339, #152 ) ) ;
#50 = EDGE_CURVE ( 'NONE', #328, #212, #166, .T. ) ;
#51 = DIRECTION ( 'NONE',  ( 6.982962677686266711E-15, -1.000000000000000000, 0.000000000000000000 ) ) ;
#52 = CARTESIAN_POINT ( 'NONE',  ( 0.000000000000000000, -158.9000000000000341, -4.816607405760618718E-14 ) ) ;
#53 = CARTESIAN_POINT ( 'NONE',  ( 4.163799117100997108E-16, -158.9000000000000341, 3.399999999999948841 ) ) ;
#54 =( NAMED_UNIT ( * ) PLANE_ANGLE_UNIT ( ) SI_UNIT ( $, .RADIAN. ) );
#55 = PRODUCT_DEFINITION_FORMATION_WITH_SPECIFIED_SOURCE ( 'ä»', '', #231, .NOT_KNOWN. ) ;
#56 = APPLICATION_CONTEXT ( 'configuration controlled 3d designs of mechanical parts and assemblies' ) ;
#57 = CIRCLE ( 'NONE', #113, 6.499999999999999112 ) ;
#58 = CARTESIAN_POINT ( 'NONE',  ( 0.000000000000000000, 0.000000000000000000, 0.000000000000000000 ) ) ;
#59 = ADVANCED_BREP_SHAPE_REPRESENTATION ( '\X2\740394f0\X0\-\X2\6746\X0\_down', ( #168, #72 ), #86 ) ;
#60 = ADVANCED_FACE ( 'NONE', ( #275 ), #79, .F. ) ;
#61 = LOCAL_TIME ( 13, 14, 38.00000000000000000, #205 ) ;
#62 = CALENDAR_DATE ( 2026, 15, 5 ) ;
#63 = CALENDAR_DATE ( 2026, 15, 5 ) ;
#64 = DIRECTION ( 'NONE',  ( 0.000000000000000000, 0.000000000000000000, -1.000000000000000000 ) ) ;
#65 = DATE_AND_TIME ( #63, #61 ) ;
#66 = PLANE ( 'NONE',  #263 ) ;
#67 = VERTEX_POINT ( 'NONE', #353 ) ;
#68 = DATE_AND_TIME ( #62, #310 ) ;
#69 = EDGE_CURVE ( 'NONE', #296, #244, #105, .T. ) ;
#70 = DIRECTION ( 'NONE',  ( -0.000000000000000000, -1.000000000000000000, -0.000000000000000000 ) ) ;
#71 = CARTESIAN_POINT ( 'NONE',  ( 0.000000000000000000, -158.2750000000000625, -4.816607405760618718E-14 ) ) ;
#72 = AXIS2_PLACEMENT_3D ( 'NONE', #354, #224, #163 ) ;
#73 = ORIENTED_EDGE ( 'NONE', *, *, #180, .F. ) ;
#74 = CARTESIAN_POINT ( 'NONE',  ( 0.000000000000000000, -1.951427447016074368E-15, -5.858567816873345598E-31 ) ) ;
#75 = ORIENTED_EDGE ( 'NONE', *, *, #225, .F. ) ;
#76 = ADVANCED_FACE ( 'NONE', ( #304 ), #17, .F. ) ;
#77 = ORIENTED_EDGE ( 'NONE', *, *, #257, .F. ) ;
#78 = DIRECTION ( 'NONE',  ( 0.000000000000000000, -0.5150380749100591515, -0.8571673007021093360 ) ) ;
#79 = CONICAL_SURFACE ( 'NONE', #324, 4.025000000000000355, 0.7853981633974611576 ) ;
#80 = DIRECTION ( 'NONE',  ( -0.000000000000000000, 1.000000000000000000, 3.002196072332422445E-16 ) ) ;
#81 = CARTESIAN_POINT ( 'NONE',  ( 4.929203366568097207E-16, -158.9000000000000341, 4.024999999999952394 ) ) ;
#82 = ORIENTED_EDGE ( 'NONE', *, *, #322, .T. ) ;
#83 = LINE ( 'NONE', #53, #178 ) ;
#84 = CC_DESIGN_PERSON_AND_ORGANIZATION_ASSIGNMENT ( #312, #207, ( #213 ) ) ;
#85 = AXIS2_PLACEMENT_3D ( 'NONE', #40, #155, #8 ) ;
#86 =( GEOMETRIC_REPRESENTATION_CONTEXT ( 3 ) GLOBAL_UNCERTAINTY_ASSIGNED_CONTEXT ( ( #255 ) ) GLOBAL_UNIT_ASSIGNED_CONTEXT ( ( #279, #54, #352 ) ) REPRESENTATION_CONTEXT ( 'NONE', 'WORKASPACE' ) );
#87 = ADVANCED_FACE ( 'NONE', ( #253 ), #233, .T. ) ;
#88 = PERSON_AND_ORGANIZATION_ROLE ( 'design_owner' ) ;
#89 = DATE_AND_TIME ( #5, #177 ) ;
#90 = CARTESIAN_POINT ( 'NONE',  ( 4.163799117100996122E-16, -139.1500000000000625, 3.399999999999947953 ) ) ;
#91 = ORIENTED_EDGE ( 'NONE', *, *, #30, .T. ) ;
#92 = DIRECTION ( 'NONE',  ( -0.000000000000000000, 1.000000000000000000, 3.002196072332422445E-16 ) ) ;
#93 = EDGE_CURVE ( 'NONE', #67, #153, #273, .T. ) ;
#94 = DIRECTION ( 'NONE',  ( 0.000000000000000000, 0.000000000000000000, -1.000000000000000000 ) ) ;
#95 = ORIENTED_EDGE ( 'NONE', *, *, #30, .F. ) ;
#96 = PERSON_AND_ORGANIZATION ( #305, #331 ) ;
#97 = DIRECTION ( 'NONE',  ( 0.000000000000000000, 0.000000000000000000, -1.000000000000000000 ) ) ;
#98 = ORIENTED_EDGE ( 'NONE', *, *, #287, .T. ) ;
#99 = PRODUCT_RELATED_PRODUCT_CATEGORY ( 'detail', '', ( #231 ) ) ;
#100 = LINE ( 'NONE', #327, #118 ) ;
#101 = DIRECTION ( 'NONE',  ( 0.000000000000000000, 0.000000000000000000, -1.000000000000000000 ) ) ;
#102 = APPROVAL_PERSON_ORGANIZATION ( #31, #234, #9 ) ;
#103 = EDGE_LOOP ( 'NONE', ( #73, #159, #204, #265 ) ) ;
#104 = APPLICATION_CONTEXT ( 'configuration controlled 3d designs of mechanical parts and assemblies' ) ;
#105 = LINE ( 'NONE', #223, #217 ) ;
#106 = DIRECTION ( 'NONE',  ( 0.000000000000000000, -0.7071067811865383579, -0.7071067811865565655 ) ) ;
#107 = CIRCLE ( 'NONE', #183, 4.025000000000000355 ) ;
#108 = CARTESIAN_POINT ( 'NONE',  ( 0.000000000000000000, -158.9000000000000341, -4.816607405760618718E-14 ) ) ;
#109 = CIRCLE ( 'NONE', #29, 3.399999999999995914 ) ;
#110 = VERTEX_POINT ( 'NONE', #292 ) ;
#111 = CARTESIAN_POINT ( 'NONE',  ( 0.000000000000000000, -158.9000000000000341, -4.025000000000049205 ) ) ;
#112 = APPROVAL ( #154, 'æœª' ) ;
#113 = AXIS2_PLACEMENT_3D ( 'NONE', #164, #138, #326 ) ;
#114 = AXIS2_PLACEMENT_3D ( 'NONE', #52, #282, #23 ) ;
#115 = AXIS2_PLACEMENT_3D ( 'NONE', #256, #48, #167 ) ;
#116 = CC_DESIGN_APPROVAL ( #148, ( #55 ) ) ;
#117 = ADVANCED_FACE ( 'NONE', ( #237 ), #32, .T. ) ;
#118 = VECTOR ( 'NONE', #219, 1000.000000000000000 ) ;
#119 = CALENDAR_DATE ( 2026, 15, 5 ) ;
#120 = LINE ( 'NONE', #236, #254 ) ;
#121 = AXIS2_PLACEMENT_3D ( 'NONE', #313, #38, #64 ) ;
#122 = EDGE_CURVE ( 'NONE', #123, #41, #42, .T. ) ;
#123 = VERTEX_POINT ( 'NONE', #262 ) ;
#124 = APPROVAL_ROLE ( '' ) ;
#125 = VERTEX_POINT ( 'NONE', #149 ) ;
#126 = CARTESIAN_POINT ( 'NONE',  ( 0.000000000000000000, -158.9000000000000341, -4.816607405760618718E-14 ) ) ;
#127 = ORIENTED_EDGE ( 'NONE', *, *, #345, .F. ) ;
#128 = COORDINATED_UNIVERSAL_TIME_OFFSET ( 8, 0, .AHEAD. ) ;
#129 = ADVANCED_FACE ( 'NONE', ( #239 ), #191, .F. ) ;
#130 = DIRECTION ( 'NONE',  ( -0.000000000000000000, -1.000000000000000000, -0.000000000000000000 ) ) ;
#131 = ORIENTED_EDGE ( 'NONE', *, *, #93, .F. ) ;
#132 = ORIENTED_EDGE ( 'NONE', *, *, #50, .F. ) ;
#133 = DIRECTION ( 'NONE',  ( -0.000000000000000000, -1.000000000000000000, -0.000000000000000000 ) ) ;
#134 = DIRECTION ( 'NONE',  ( 0.000000000000000000, 0.000000000000000000, -1.000000000000000000 ) ) ;
#135 = PRODUCT_DEFINITION ( 'æœ', '', #55, #199 ) ;
#136 = DIRECTION ( 'NONE',  ( -0.000000000000000000, 1.000000000000000000, 3.002196072332422445E-16 ) ) ;
#137 = ORIENTED_EDGE ( 'NONE', *, *, #209, .T. ) ;
#138 = DIRECTION ( 'NONE',  ( -0.000000000000000000, 1.000000000000000000, 3.002196072332422445E-16 ) ) ;
#139 = EDGE_LOOP ( 'NONE', ( #300, #75 ) ) ;
#140 = CARTESIAN_POINT ( 'NONE',  ( 0.000000000000000000, -158.9000000000000057, 6.499999999999952038 ) ) ;
#141 = CARTESIAN_POINT ( 'NONE',  ( 0.000000000000000000, -139.1500000000000625, -4.816607405760618718E-14 ) ) ;
#142 = AXIS2_PLACEMENT_3D ( 'NONE', #141, #160, #101 ) ;
#143 = CIRCLE ( 'NONE', #115, 3.399999999999998135 ) ;
#144 = AXIS2_PLACEMENT_3D ( 'NONE', #283, #136, #24 ) ;
#145 = COORDINATED_UNIVERSAL_TIME_OFFSET ( 8, 0, .AHEAD. ) ;
#146 = CARTESIAN_POINT ( 'NONE',  ( 0.000000000000000000, -139.1500000000000625, -4.816607405760618718E-14 ) ) ;
#147 = APPROVAL_DATE_TIME ( #68, #234 ) ;
#148 = APPROVAL ( #37, 'æœª' ) ;
#149 = CARTESIAN_POINT ( 'NONE',  ( 7.960204194457824073E-16, -158.9000000000000057, -6.500000000000047073 ) ) ;
#150 = DATE_AND_TIME ( #170, #229 ) ;
#151 = CARTESIAN_POINT ( 'NONE',  ( 7.960204194457794491E-16, 1.951427447016074368E-15, -6.499999999999999112 ) ) ;
#152 = ORIENTED_EDGE ( 'NONE', *, *, #335, .T. ) ;
#153 = VERTEX_POINT ( 'NONE', #243 ) ;
#154 = APPROVAL_STATUS ( 'not_yet_approved' ) ;
#155 = DIRECTION ( 'NONE',  ( -0.000000000000000000, 1.000000000000000000, 3.002196072332422445E-16 ) ) ;
#156 = ORIENTED_EDGE ( 'NONE', *, *, #286, .F. ) ;
#157 = DIRECTION ( 'NONE',  ( -0.000000000000000000, -1.000000000000000000, -0.000000000000000000 ) ) ;
#158 = DIRECTION ( 'NONE',  ( -0.000000000000000000, -1.000000000000000000, -0.000000000000000000 ) ) ;
#159 = ORIENTED_EDGE ( 'NONE', *, *, #122, .F. ) ;
#160 = DIRECTION ( 'NONE',  ( -0.000000000000000000, -1.000000000000000000, -0.000000000000000000 ) ) ;
#161 = AXIS2_PLACEMENT_3D ( 'NONE', #74, #186, #46 ) ;
#162 = EDGE_LOOP ( 'NONE', ( #357, #291, #188, #95 ) ) ;
#163 = DIRECTION ( 'NONE',  ( 1.000000000000000000, 0.000000000000000000, 0.000000000000000000 ) ) ;
#164 = CARTESIAN_POINT ( 'NONE',  ( 0.000000000000000000, -1.951427447016074368E-15, -5.858567816873345598E-31 ) ) ;
#165 = EDGE_CURVE ( 'NONE', #296, #125, #258, .T. ) ;
#166 = CIRCLE ( 'NONE', #261, 7.750000000000000000 ) ;
#167 = DIRECTION ( 'NONE',  ( 0.000000000000000000, 0.000000000000000000, -1.000000000000000000 ) ) ;
#168 = MANIFOLD_SOLID_BREP ( 'M8 \X2\87ba7eb95b54\X0\1', #169 ) ;
#169 = CLOSED_SHELL ( 'NONE', ( #76, #259, #187, #87, #245, #117, #220, #278, #129, #198, #60 ) ) ;
#170 = CALENDAR_DATE ( 2026, 15, 5 ) ;
#171 = DIRECTION ( 'NONE',  ( 0.000000000000000000, -3.002196072332422445E-16, 1.000000000000000000 ) ) ;
#172 = CC_DESIGN_PERSON_AND_ORGANIZATION_ASSIGNMENT ( #260, #88, ( #231 ) ) ;
#173 = APPROVAL_DATE_TIME ( #89, #112 ) ;
#174 = CARTESIAN_POINT ( 'NONE',  ( 0.000000000000000000, -158.9000000000000057, -4.770489558936219510E-14 ) ) ;
#175 = DIRECTION ( 'NONE',  ( -0.000000000000000000, 1.000000000000000000, 3.002196072332422445E-16 ) ) ;
#176 = ORIENTED_EDGE ( 'NONE', *, *, #315, .F. ) ;
#177 = LOCAL_TIME ( 13, 14, 38.00000000000000000, #145 ) ;
#178 = VECTOR ( 'NONE', #158, 1000.000000000000000 ) ;
#179 = CARTESIAN_POINT ( 'NONE',  ( 0.000000000000000000, -3.902854894032148735E-15, 6.499999999999999112 ) ) ;
#180 = EDGE_CURVE ( 'NONE', #41, #246, #120, .T. ) ;
#181 = DATE_TIME_ROLE ( 'creation_date' ) ;
#182 = FACE_BOUND ( 'NONE', #139, .T. ) ;
#183 = AXIS2_PLACEMENT_3D ( 'NONE', #108, #157, #277 ) ;
#184 = AXIS2_PLACEMENT_3D ( 'NONE', #146, #130, #94 ) ;
#185 = CARTESIAN_POINT ( 'NONE',  ( 3.808651545348268472E-15, 1.329783579673954269E-29, 0.000000000000000000 ) ) ;
#186 = DIRECTION ( 'NONE',  ( -0.000000000000000000, 1.000000000000000000, 3.002196072332422445E-16 ) ) ;
#187 = ADVANCED_FACE ( 'NONE', ( #319 ), #344, .F. ) ;
#188 = ORIENTED_EDGE ( 'NONE', *, *, #268, .T. ) ;
#189 = CYLINDRICAL_SURFACE ( 'NONE', #318, 3.399999999999996803 ) ;
#190 = ORIENTED_EDGE ( 'NONE', *, *, #335, .F. ) ;
#191 = CONICAL_SURFACE ( 'NONE', #184, 3.399999999999995914, 1.029744258676648760 ) ;
#192 = DIRECTION ( 'NONE',  ( -0.000000000000000000, 1.000000000000000000, 3.002196072332422445E-16 ) ) ;
#193 = CC_DESIGN_PERSON_AND_ORGANIZATION_ASSIGNMENT ( #294, #238, ( #135 ) ) ;
#194 = CYLINDRICAL_SURFACE ( 'NONE', #144, 6.499999999999999112 ) ;
#195 = EDGE_LOOP ( 'NONE', ( #230, #137, #321, #20 ) ) ;
#196 = DIRECTION ( 'NONE',  ( -0.000000000000000000, -1.000000000000000000, -0.000000000000000000 ) ) ;
#197 = AXIS2_PLACEMENT_3D ( 'NONE', #71, #242, #342 ) ;
#198 = ADVANCED_FACE ( 'NONE', ( #203 ), #340, .F. ) ;
#199 = DESIGN_CONTEXT ( 'detailed design', #104, 'design' ) ;
#200 = CIRCLE ( 'NONE', #161, 6.499999999999999112 ) ;
#201 = AXIS2_PLACEMENT_3D ( 'NONE', #35, #36, #3 ) ;
#202 = APPLICATION_PROTOCOL_DEFINITION ( 'international standard', 'config_control_design', 1994, #104 ) ;
#203 = FACE_OUTER_BOUND ( 'NONE', #7, .T. ) ;
#204 = ORIENTED_EDGE ( 'NONE', *, *, #257, .T. ) ;
#205 = COORDINATED_UNIVERSAL_TIME_OFFSET ( 8, 0, .AHEAD. ) ;
#206 = FACE_BOUND ( 'NONE', #222, .T. ) ;
#207 = PERSON_AND_ORGANIZATION_ROLE ( 'classification_officer' ) ;
#208 = CIRCLE ( 'NONE', #142, 3.399999999999995914 ) ;
#209 = EDGE_CURVE ( 'NONE', #125, #349, #264, .T. ) ;
#210 = DIRECTION ( 'NONE',  ( 0.000000000000000000, 0.000000000000000000, 1.000000000000000000 ) ) ;
#211 = VECTOR ( 'NONE', #10, 999.9999999999998863 ) ;
#212 = VERTEX_POINT ( 'NONE', #270 ) ;
#213 = SECURITY_CLASSIFICATION ( '', '', #214 ) ;
#214 = SECURITY_CLASSIFICATION_LEVEL ( 'unclassified' ) ;
#215 = FACE_OUTER_BOUND ( 'NONE', #325, .T. ) ;
#216 = VECTOR ( 'NONE', #78, 999.9999999999998863 ) ;
#217 = VECTOR ( 'NONE', #192, 1000.000000000000000 ) ;
#218 = VECTOR ( 'NONE', #92, 1000.000000000000000 ) ;
#219 = DIRECTION ( 'NONE',  ( -0.000000000000000000, -1.000000000000000000, -0.000000000000000000 ) ) ;
#220 = ADVANCED_FACE ( 'NONE', ( #206, #317 ), #66, .T. ) ;
#221 = FACE_OUTER_BOUND ( 'NONE', #162, .T. ) ;
#222 = EDGE_LOOP ( 'NONE', ( #280, #82 ) ) ;
#223 = CARTESIAN_POINT ( 'NONE',  ( 0.000000000000000000, -1.951427447016074368E-15, 6.499999999999999112 ) ) ;
#224 = DIRECTION ( 'NONE',  ( 0.000000000000000000, 0.000000000000000000, 1.000000000000000000 ) ) ;
#225 = EDGE_CURVE ( 'NONE', #246, #343, #227, .T. ) ;
#226 = CARTESIAN_POINT ( 'NONE',  ( 0.000000000000000000, -158.9000000000000057, -4.770489558936219510E-14 ) ) ;
#227 = CIRCLE ( 'NONE', #302, 4.025000000000000355 ) ;
#228 = MECHANICAL_CONTEXT ( 'NONE', #56, 'mechanical' ) ;
#229 = LOCAL_TIME ( 13, 14, 38.00000000000000000, #309 ) ;
#230 = ORIENTED_EDGE ( 'NONE', *, *, #165, .T. ) ;
#231 = PRODUCT ( '\X2\740394f0\X0\-\X2\6746\X0\_down', '\X2\740394f0\X0\-\X2\6746\X0\_down', '', ( #228 ) ) ;
#232 = LOCAL_TIME ( 13, 14, 38.00000000000000000, #39 ) ;
#233 = CYLINDRICAL_SURFACE ( 'NONE', #28, 6.499999999999999112 ) ;
#234 = APPROVAL ( #34, 'æœª' ) ;
#235 = APPROVAL_ROLE ( '' ) ;
#236 = CARTESIAN_POINT ( 'NONE',  ( 4.929203366568097207E-16, -158.9000000000000341, 4.024999999999952394 ) ) ;
#237 = FACE_OUTER_BOUND ( 'NONE', #332, .T. ) ;
#238 = PERSON_AND_ORGANIZATION_ROLE ( 'creator' ) ;
#239 = FACE_OUTER_BOUND ( 'NONE', #49, .T. ) ;
#240 = ORIENTED_EDGE ( 'NONE', *, *, #209, .F. ) ;
#241 = CIRCLE ( 'NONE', #288, 7.750000000000000000 ) ;
#242 = DIRECTION ( 'NONE',  ( -0.000000000000000000, -1.000000000000000000, -0.000000000000000000 ) ) ;
#243 = CARTESIAN_POINT ( 'NONE',  ( 4.163799117100996122E-16, -139.1500000000000625, 3.399999999999947953 ) ) ;
#244 = VERTEX_POINT ( 'NONE', #179 ) ;
#245 = ADVANCED_FACE ( 'NONE', ( #215, #182 ), #295, .F. ) ;
#246 = VERTEX_POINT ( 'NONE', #81 ) ;
#247 = DIRECTION ( 'NONE',  ( 0.000000000000000000, 0.000000000000000000, 1.000000000000000000 ) ) ;
#248 = DIRECTION ( 'NONE',  ( 0.000000000000000000, 0.000000000000000000, -1.000000000000000000 ) ) ;
#249 = ORIENTED_EDGE ( 'NONE', *, *, #180, .T. ) ;
#250 = APPLICATION_PROTOCOL_DEFINITION ( 'international standard', 'config_control_design', 1994, #56 ) ;
#251 = EDGE_LOOP ( 'NONE', ( #240, #11, #47, #348 ) ) ;
#252 = CARTESIAN_POINT ( 'NONE',  ( 0.000000000000000000, -158.9000000000000341, -4.025000000000049205 ) ) ;
#253 = FACE_OUTER_BOUND ( 'NONE', #195, .T. ) ;
#254 = VECTOR ( 'NONE', #337, 1000.000000000000114 ) ;
#255 = UNCERTAINTY_MEASURE_WITH_UNIT (LENGTH_MEASURE( 1.000000000000000082E-05 ), #279, 'distance_accuracy_value', 'NONE');
#256 = CARTESIAN_POINT ( 'NONE',  ( 0.000000000000000000, -158.2750000000000625, -4.816607405760618718E-14 ) ) ;
#257 = EDGE_CURVE ( 'NONE', #123, #343, #21, .T. ) ;
#258 = CIRCLE ( 'NONE', #25, 6.500000000000000000 ) ;
#259 = ADVANCED_FACE ( 'NONE', ( #221 ), #189, .F. ) ;
#260 = PERSON_AND_ORGANIZATION ( #305, #331 ) ;
#261 = AXIS2_PLACEMENT_3D ( 'NONE', #185, #298, #45 ) ;
#262 = CARTESIAN_POINT ( 'NONE',  ( 0.000000000000000000, -158.2750000000000625, -3.400000000000046096 ) ) ;
#263 = AXIS2_PLACEMENT_3D ( 'NONE', #267, #6, #210 ) ;
#264 = LINE ( 'NONE', #151, #218 ) ;
#265 = ORIENTED_EDGE ( 'NONE', *, *, #22, .T. ) ;
#266 = PERSON_AND_ORGANIZATION ( #305, #331 ) ;
#267 = CARTESIAN_POINT ( 'NONE',  ( 3.808651545348268472E-15, 1.329783579673954269E-29, 0.000000000000000000 ) ) ;
#268 = EDGE_CURVE ( 'NONE', #41, #123, #143, .T. ) ;
#269 = PERSON_AND_ORGANIZATION_ROLE ( 'creator' ) ;
#270 = CARTESIAN_POINT ( 'NONE',  ( 2.859550276009069890E-15, 6.670297055599254656E-30, -7.750000000000000000 ) ) ;
#271 = ORIENTED_EDGE ( 'NONE', *, *, #225, .T. ) ;
#272 = APPROVAL_DATE_TIME ( #150, #148 ) ;
#273 = LINE ( 'NONE', #90, #211 ) ;
#274 = EDGE_LOOP ( 'NONE', ( #176, #329, #98 ) ) ;
#275 = FACE_OUTER_BOUND ( 'NONE', #103, .T. ) ;
#276 = CARTESIAN_POINT ( 'NONE',  ( 7.960204194457794491E-16, 0.000000000000000000, -6.499999999999999112 ) ) ;
#277 = DIRECTION ( 'NONE',  ( 0.000000000000000000, 0.000000000000000000, -1.000000000000000000 ) ) ;
#278 = ADVANCED_FACE ( 'NONE', ( #299 ), #194, .T. ) ;
#279 =( LENGTH_UNIT ( ) NAMED_UNIT ( * ) SI_UNIT ( .MILLI., .METRE. ) );
#280 = ORIENTED_EDGE ( 'NONE', *, *, #338, .T. ) ;
#281 = CARTESIAN_POINT ( 'NONE',  ( 0.000000000000000000, -158.9000000000000341, -4.816607405760618718E-14 ) ) ;
#282 = DIRECTION ( 'NONE',  ( -0.000000000000000000, -1.000000000000000000, -0.000000000000000000 ) ) ;
#283 = CARTESIAN_POINT ( 'NONE',  ( 0.000000000000000000, 0.000000000000000000, 0.000000000000000000 ) ) ;
#284 = AXIS2_PLACEMENT_3D ( 'NONE', #293, #346, #290 ) ;
#285 = CARTESIAN_POINT ( 'NONE',  ( 0.000000000000000000, -139.1500000000000625, -4.816607405760618718E-14 ) ) ;
#286 = EDGE_CURVE ( 'NONE', #212, #328, #241, .T. ) ;
#287 = EDGE_CURVE ( 'NONE', #153, #110, #109, .T. ) ;
#288 = AXIS2_PLACEMENT_3D ( 'NONE', #301, #51, #19 ) ;
#289 = DATE_TIME_ROLE ( 'classification_date' ) ;
#290 = DIRECTION ( 'NONE',  ( 0.000000000000000000, 0.000000000000000000, -1.000000000000000000 ) ) ;
#291 = ORIENTED_EDGE ( 'NONE', *, *, #345, .T. ) ;
#292 = CARTESIAN_POINT ( 'NONE',  ( 0.000000000000000000, -139.1500000000000625, -3.400000000000043876 ) ) ;
#293 = CARTESIAN_POINT ( 'NONE',  ( 0.000000000000000000, -139.1500000000000625, -4.816607405760618718E-14 ) ) ;
#294 = PERSON_AND_ORGANIZATION ( #305, #331 ) ;
#295 = PLANE ( 'NONE',  #85 ) ;
#296 = VERTEX_POINT ( 'NONE', #140 ) ;
#297 = APPROVAL_PERSON_ORGANIZATION ( #96, #112, #124 ) ;
#298 = DIRECTION ( 'NONE',  ( 6.982962677686266711E-15, -1.000000000000000000, 0.000000000000000000 ) ) ;
#299 = FACE_OUTER_BOUND ( 'NONE', #251, .T. ) ;
#300 = ORIENTED_EDGE ( 'NONE', *, *, #22, .F. ) ;
#301 = CARTESIAN_POINT ( 'NONE',  ( 3.808651545348268472E-15, 1.329783579673954269E-29, 0.000000000000000000 ) ) ;
#302 = AXIS2_PLACEMENT_3D ( 'NONE', #126, #70, #97 ) ;
#303 = ORIENTED_EDGE ( 'NONE', *, *, #50, .T. ) ;
#304 = FACE_OUTER_BOUND ( 'NONE', #355, .T. ) ;
#305 = PERSON ( 'æœª', 'æœª', 'æœª', ('æœª'), ('æœª'), ('æœª') ) ;
#306 = CARTESIAN_POINT ( 'NONE',  ( 0.000000000000000000, -139.1500000000000625, -3.400000000000043876 ) ) ;
#307 = ORIENTED_EDGE ( 'NONE', *, *, #44, .F. ) ;
#308 = CARTESIAN_POINT ( 'NONE',  ( 3.808651545348268472E-15, 1.329783579673954269E-29, 7.750000000000000000 ) ) ;
#309 = COORDINATED_UNIVERSAL_TIME_OFFSET ( 8, 0, .AHEAD. ) ;
#310 = LOCAL_TIME ( 13, 14, 38.00000000000000000, #128 ) ;
#311 = DIRECTION ( 'NONE',  ( -0.000000000000000000, 1.000000000000000000, 3.002196072332422445E-16 ) ) ;
#312 = PERSON_AND_ORGANIZATION ( #305, #331 ) ;
#313 = CARTESIAN_POINT ( 'NONE',  ( 0.000000000000000000, -158.9000000000000341, -4.816607405760618718E-14 ) ) ;
#314 = ORIENTED_EDGE ( 'NONE', *, *, #286, .T. ) ;
#315 = EDGE_CURVE ( 'NONE', #67, #110, #26, .T. ) ;
#316 = SHAPE_DEFINITION_REPRESENTATION ( #333, #59 ) ;
#317 = FACE_OUTER_BOUND ( 'NONE', #347, .T. ) ;
#318 = AXIS2_PLACEMENT_3D ( 'NONE', #281, #196, #248 ) ;
#319 = FACE_OUTER_BOUND ( 'NONE', #274, .T. ) ;
#320 = CC_DESIGN_APPROVAL ( #234, ( #213 ) ) ;
#321 = ORIENTED_EDGE ( 'NONE', *, *, #338, .F. ) ;
#322 = EDGE_CURVE ( 'NONE', #349, #244, #57, .T. ) ;
#323 = CIRCLE ( 'NONE', #33, 6.500000000000000000 ) ;
#324 = AXIS2_PLACEMENT_3D ( 'NONE', #16, #350, #134 ) ;
#325 = EDGE_LOOP ( 'NONE', ( #14, #307 ) ) ;
#326 = DIRECTION ( 'NONE',  ( 0.000000000000000000, -3.002196072332422445E-16, 1.000000000000000000 ) ) ;
#327 = CARTESIAN_POINT ( 'NONE',  ( 0.000000000000000000, -158.9000000000000341, -3.400000000000044764 ) ) ;
#328 = VERTEX_POINT ( 'NONE', #308 ) ;
#329 = ORIENTED_EDGE ( 'NONE', *, *, #93, .T. ) ;
#330 = DIRECTION ( 'NONE',  ( 0.000000000000000000, 0.000000000000000000, -1.000000000000000000 ) ) ;
#331 = ORGANIZATION ( 'æœª', 'æœª', '' ) ;
#332 = EDGE_LOOP ( 'NONE', ( #132, #156 ) ) ;
#333 = PRODUCT_DEFINITION_SHAPE ( 'NONE', 'NONE',  #135 ) ;
#334 = VECTOR ( 'NONE', #106, 1000.000000000000114 ) ;
#335 = EDGE_CURVE ( 'NONE', #110, #153, #208, .T. ) ;
#336 = PERSON_AND_ORGANIZATION_ROLE ( 'design_supplier' ) ;
#337 = DIRECTION ( 'NONE',  ( 8.659560562355043792E-17, -0.7071067811865383579, 0.7071067811865565655 ) ) ;
#338 = EDGE_CURVE ( 'NONE', #244, #349, #200, .T. ) ;
#339 = ORIENTED_EDGE ( 'NONE', *, *, #315, .T. ) ;
#340 = CYLINDRICAL_SURFACE ( 'NONE', #121, 3.399999999999996803 ) ;
#341 = PERSON_AND_ORGANIZATION ( #305, #331 ) ;
#342 = DIRECTION ( 'NONE',  ( 0.000000000000000000, 0.000000000000000000, -1.000000000000000000 ) ) ;
#343 = VERTEX_POINT ( 'NONE', #252 ) ;
#344 = CONICAL_SURFACE ( 'NONE', #284, 3.399999999999995914, 1.029744258676648760 ) ;
#345 = EDGE_CURVE ( 'NONE', #153, #41, #83, .T. ) ;
#346 = DIRECTION ( 'NONE',  ( -0.000000000000000000, -1.000000000000000000, -0.000000000000000000 ) ) ;
#347 = EDGE_LOOP ( 'NONE', ( #303, #314 ) ) ;
#348 = ORIENTED_EDGE ( 'NONE', *, *, #322, .F. ) ;
#349 = VERTEX_POINT ( 'NONE', #276 ) ;
#350 = DIRECTION ( 'NONE',  ( -0.000000000000000000, -1.000000000000000000, -0.000000000000000000 ) ) ;
#351 = CC_DESIGN_APPROVAL ( #112, ( #135 ) ) ;
#352 =( NAMED_UNIT ( * ) SI_UNIT ( $, .STERADIAN. ) SOLID_ANGLE_UNIT ( ) );
#353 = CARTESIAN_POINT ( 'NONE',  ( -5.292167275488726018E-15, -137.1070738953063142, -4.816607405760618718E-14 ) ) ;
#354 = CARTESIAN_POINT ( 'NONE',  ( 0.000000000000000000, 0.000000000000000000, 0.000000000000000000 ) ) ;
#355 = EDGE_LOOP ( 'NONE', ( #43, #249, #271, #77 ) ) ;
#356 = CC_DESIGN_DATE_AND_TIME_ASSIGNMENT ( #65, #289, ( #213 ) ) ;
#357 = ORIENTED_EDGE ( 'NONE', *, *, #287, .F. ) ;
#358 = CC_DESIGN_PERSON_AND_ORGANIZATION_ASSIGNMENT ( #12, #336, ( #55 ) ) ;
#359 = CC_DESIGN_SECURITY_CLASSIFICATION ( #213, ( #55 ) ) ;
ENDSEC;
END-ISO-10303-21;
