ISO-10303-21;
HEADER;
FILE_DESCRIPTION (( 'STEP AP203' ),
    '1' );
FILE_NAME ('Çò½Â-¸Ë_middle.STEP',
    '2026-05-15T05:13:47',
    ( '' ),
    ( '' ),
    'SwSTEP 2.0',
    'SolidWorks 2025',
    '' );
FILE_SCHEMA (( 'CONFIG_CONTROL_DESIGN' ));
ENDSEC;

DATA;
#1 = LINE ( 'NONE', #26, #244 ) ;
#2 = CYLINDRICAL_SURFACE ( 'NONE', #218, 6.499999999999999112 ) ;
#3 = CARTESIAN_POINT ( 'NONE',  ( 0.000000000000000000, -98.45000000000001705, -3.695386503697844935E-14 ) ) ;
#4 = APPROVAL_ROLE ( '' ) ;
#5 = ORIENTED_EDGE ( 'NONE', *, *, #304, .T. ) ;
#6 = MANIFOLD_SOLID_BREP ( 'M8 \X2\87ba7eb95b54\X0\1', #165 ) ;
#7 = APPROVAL_DATE_TIME ( #168, #337 ) ;
#8 = ORIENTED_EDGE ( 'NONE', *, *, #253, .T. ) ;
#9 = EDGE_LOOP ( 'NONE', ( #52, #188 ) ) ;
#10 = CIRCLE ( 'NONE', #53, 6.500000000000000000 ) ;
#11 = APPLICATION_PROTOCOL_DEFINITION ( 'international standard', 'config_control_design', 1994, #302 ) ;
#12 = EDGE_LOOP ( 'NONE', ( #283, #324 ) ) ;
#13 = DIRECTION ( 'NONE',  ( 0.000000000000000000, 0.000000000000000000, -1.000000000000000000 ) ) ;
#14 = SECURITY_CLASSIFICATION ( '', '', #342 ) ;
#15 = CARTESIAN_POINT ( 'NONE',  ( 0.000000000000000000, -98.45000000000001705, -3.695386503697844935E-14 ) ) ;
#16 = VECTOR ( 'NONE', #120, 1000.000000000000000 ) ;
#17 = CARTESIAN_POINT ( 'NONE',  ( 0.000000000000000000, -118.2000000000000028, -3.556183125752454544E-14 ) ) ;
#18 = DIRECTION ( 'NONE',  ( -0.000000000000000000, 1.000000000000000000, 3.008615165611213619E-16 ) ) ;
#19 = CC_DESIGN_APPROVAL ( #111, ( #14 ) ) ;
#20 = CYLINDRICAL_SURFACE ( 'NONE', #126, 6.499999999999999112 ) ;
#21 = FACE_OUTER_BOUND ( 'NONE', #257, .T. ) ;
#22 = EDGE_CURVE ( 'NONE', #118, #145, #279, .T. ) ;
#23 = CARTESIAN_POINT ( 'NONE',  ( 0.000000000000000000, -118.2000000000000313, -3.695386503697844935E-14 ) ) ;
#24 = DIRECTION ( 'NONE',  ( 0.000000000000000000, 0.000000000000000000, -1.000000000000000000 ) ) ;
#25 = AXIS2_PLACEMENT_3D ( 'NONE', #180, #125, #327 ) ;
#26 = CARTESIAN_POINT ( 'NONE',  ( 7.960204194457794491E-16, 1.955599857647288310E-15, -6.499999999999999112 ) ) ;
#27 = EDGE_LOOP ( 'NONE', ( #172, #62, #169 ) ) ;
#28 = DIRECTION ( 'NONE',  ( -0.000000000000000000, -1.000000000000000000, -0.000000000000000000 ) ) ;
#29 = DATE_AND_TIME ( #271, #250 ) ;
#30 = APPROVAL_STATUS ( 'not_yet_approved' ) ;
#31 = AXIS2_PLACEMENT_3D ( 'NONE', #177, #98, #13 ) ;
#32 = EDGE_CURVE ( 'NONE', #146, #223, #122, .T. ) ;
#33 = CARTESIAN_POINT ( 'NONE',  ( 0.000000000000000000, -118.2000000000000313, -4.025000000000037659 ) ) ;
#34 = APPROVAL_DATE_TIME ( #109, #111 ) ;
#35 = ORIENTED_EDGE ( 'NONE', *, *, #217, .T. ) ;
#36 = ORIENTED_EDGE ( 'NONE', *, *, #304, .F. ) ;
#37 = CONICAL_SURFACE ( 'NONE', #31, 3.399999999999995914, 1.029744258676654756 ) ;
#38 = ORIENTED_EDGE ( 'NONE', *, *, #217, .F. ) ;
#39 = DIRECTION ( 'NONE',  ( 0.000000000000000000, 0.000000000000000000, 1.000000000000000000 ) ) ;
#40 = SPHERICAL_SURFACE ( 'NONE', #183, 7.750000000000000000 ) ;
#41 = AXIS2_PLACEMENT_3D ( 'NONE', #23, #102, #208 ) ;
#42 = DIRECTION ( 'NONE',  ( 0.000000000000000000, 0.000000000000000000, -1.000000000000000000 ) ) ;
#43 = CARTESIAN_POINT ( 'NONE',  ( 4.929203366568097207E-16, -118.2000000000000313, 4.024999999999963940 ) ) ;
#44 = DIRECTION ( 'NONE',  ( 0.000000000000000000, 0.000000000000000000, 1.000000000000000000 ) ) ;
#45 = ADVANCED_FACE ( 'NONE', ( #259 ), #37, .F. ) ;
#46 = PRODUCT_RELATED_PRODUCT_CATEGORY ( 'detail', '', ( #72 ) ) ;
#47 = DIRECTION ( 'NONE',  ( -0.000000000000000000, -1.000000000000000000, -0.000000000000000000 ) ) ;
#48 = PRODUCT_DEFINITION_SHAPE ( 'NONE', 'NONE',  #136 ) ;
#49 = DIRECTION ( 'NONE',  ( 0.000000000000000000, 0.000000000000000000, 1.000000000000000000 ) ) ;
#50 =( GEOMETRIC_REPRESENTATION_CONTEXT ( 3 ) GLOBAL_UNCERTAINTY_ASSIGNED_CONTEXT ( ( #230 ) ) GLOBAL_UNIT_ASSIGNED_CONTEXT ( ( #214, #278, #87 ) ) REPRESENTATION_CONTEXT ( 'NONE', 'WORKASPACE' ) );
#51 = DIRECTION ( 'NONE',  ( 0.000000000000000000, -3.008615165611213126E-16, 1.000000000000000000 ) ) ;
#52 = ORIENTED_EDGE ( 'NONE', *, *, #75, .F. ) ;
#53 = AXIS2_PLACEMENT_3D ( 'NONE', #101, #242, #49 ) ;
#54 = DIRECTION ( 'NONE',  ( 0.000000000000000000, 0.000000000000000000, -1.000000000000000000 ) ) ;
#55 = FACE_BOUND ( 'NONE', #167, .T. ) ;
#56 = PERSON_AND_ORGANIZATION_ROLE ( 'classification_officer' ) ;
#57 = CC_DESIGN_PERSON_AND_ORGANIZATION_ASSIGNMENT ( #307, #248, ( #136 ) ) ;
#58 = APPROVAL_STATUS ( 'not_yet_approved' ) ;
#59 = AXIS2_PLACEMENT_3D ( 'NONE', #298, #210, #54 ) ;
#60 = EDGE_LOOP ( 'NONE', ( #141, #339, #8, #212 ) ) ;
#61 = COORDINATED_UNIVERSAL_TIME_OFFSET ( 8, 0, .AHEAD. ) ;
#62 = ORIENTED_EDGE ( 'NONE', *, *, #110, .T. ) ;
#63 = PERSON_AND_ORGANIZATION ( #341, #187 ) ;
#64 = EDGE_LOOP ( 'NONE', ( #256, #116, #216, #35 ) ) ;
#65 = EDGE_CURVE ( 'NONE', #133, #281, #74, .T. ) ;
#66 = VERTEX_POINT ( 'NONE', #205 ) ;
#67 = CARTESIAN_POINT ( 'NONE',  ( 0.000000000000000000, -117.5750000000000313, -3.695386503697844935E-14 ) ) ;
#68 = DIRECTION ( 'NONE',  ( -0.000000000000000000, 1.000000000000000000, 3.008615165611213619E-16 ) ) ;
#69 = LOCAL_TIME ( 13, 13, 47.00000000000000000, #338 ) ;
#70 = DIRECTION ( 'NONE',  ( 1.049727191138618819E-16, -0.5150380749100539335, 0.8571673007021124446 ) ) ;
#71 = AXIS2_PLACEMENT_3D ( 'NONE', #15, #121, #231 ) ;
#72 = PRODUCT ( '\X2\740394f0\X0\-\X2\6746\X0\_middle', '\X2\740394f0\X0\-\X2\6746\X0\_middle', '', ( #245 ) ) ;
#73 = DIRECTION ( 'NONE',  ( -1.000000000000000000, -6.982962677686266711E-15, 0.000000000000000000 ) ) ;
#74 = LINE ( 'NONE', #323, #16 ) ;
#75 = EDGE_CURVE ( 'NONE', #299, #86, #357, .T. ) ;
#76 = CARTESIAN_POINT ( 'NONE',  ( 3.808651545348268472E-15, 1.329783579673954269E-29, 7.750000000000000000 ) ) ;
#77 = AXIS2_PLACEMENT_3D ( 'NONE', #95, #235, #261 ) ;
#78 = CARTESIAN_POINT ( 'NONE',  ( 4.163799117100997108E-16, -118.2000000000000313, 3.399999999999959943 ) ) ;
#79 = FACE_OUTER_BOUND ( 'NONE', #252, .T. ) ;
#80 = ORIENTED_EDGE ( 'NONE', *, *, #253, .F. ) ;
#81 = DIRECTION ( 'NONE',  ( 0.000000000000000000, -3.008615165611213619E-16, 1.000000000000000000 ) ) ;
#82 = CIRCLE ( 'NONE', #325, 4.025000000000000355 ) ;
#83 = PERSON_AND_ORGANIZATION ( #341, #187 ) ;
#84 = EDGE_CURVE ( 'NONE', #173, #145, #82, .T. ) ;
#85 = APPROVAL_DATE_TIME ( #313, #289 ) ;
#86 = VERTEX_POINT ( 'NONE', #288 ) ;
#87 =( NAMED_UNIT ( * ) SI_UNIT ( $, .STERADIAN. ) SOLID_ANGLE_UNIT ( ) );
#88 = AXIS2_PLACEMENT_3D ( 'NONE', #97, #68, #291 ) ;
#89 = ORIENTED_EDGE ( 'NONE', *, *, #84, .F. ) ;
#90 = ORIENTED_EDGE ( 'NONE', *, *, #142, .F. ) ;
#91 = APPROVAL_ROLE ( '' ) ;
#92 = ORIENTED_EDGE ( 'NONE', *, *, #348, .T. ) ;
#93 = AXIS2_PLACEMENT_3D ( 'NONE', #301, #28, #134 ) ;
#94 = CARTESIAN_POINT ( 'NONE',  ( 3.808651545348268472E-15, 1.329783579673954269E-29, 0.000000000000000000 ) ) ;
#95 = CARTESIAN_POINT ( 'NONE',  ( 0.000000000000000000, -98.45000000000001705, -3.695386503697844935E-14 ) ) ;
#96 = CC_DESIGN_PERSON_AND_ORGANIZATION_ASSIGNMENT ( #114, #315, ( #198 ) ) ;
#97 = CARTESIAN_POINT ( 'NONE',  ( 0.000000000000000000, -1.955599857647288310E-15, -5.883647389584762586E-31 ) ) ;
#98 = DIRECTION ( 'NONE',  ( -0.000000000000000000, -1.000000000000000000, -0.000000000000000000 ) ) ;
#99 = CIRCLE ( 'NONE', #77, 3.399999999999995914 ) ;
#100 = DIRECTION ( 'NONE',  ( 6.982962677686266711E-15, -1.000000000000000000, 0.000000000000000000 ) ) ;
#101 = CARTESIAN_POINT ( 'NONE',  ( 0.000000000000000000, -118.2000000000000028, -3.556183125752454544E-14 ) ) ;
#102 = DIRECTION ( 'NONE',  ( -0.000000000000000000, -1.000000000000000000, -0.000000000000000000 ) ) ;
#103 = AXIS2_PLACEMENT_3D ( 'NONE', #266, #359, #185 ) ;
#104 = DIRECTION ( 'NONE',  ( -0.000000000000000000, 1.000000000000000000, 3.008615165611213619E-16 ) ) ;
#105 = ORIENTED_EDGE ( 'NONE', *, *, #75, .T. ) ;
#106 = CARTESIAN_POINT ( 'NONE',  ( 4.163799117100998587E-16, -117.5750000000000313, 3.399999999999961275 ) ) ;
#107 = CC_DESIGN_SECURITY_CLASSIFICATION ( #14, ( #198 ) ) ;
#108 = FACE_OUTER_BOUND ( 'NONE', #308, .T. ) ;
#109 = DATE_AND_TIME ( #171, #293 ) ;
#110 = EDGE_CURVE ( 'NONE', #133, #66, #228, .T. ) ;
#111 = APPROVAL ( #30, 'æœª' ) ;
#112 = APPLICATION_PROTOCOL_DEFINITION ( 'international standard', 'config_control_design', 1994, #282 ) ;
#113 = ORIENTED_EDGE ( 'NONE', *, *, #156, .T. ) ;
#114 = PERSON_AND_ORGANIZATION ( #341, #187 ) ;
#115 = EDGE_LOOP ( 'NONE', ( #144, #285 ) ) ;
#116 = ORIENTED_EDGE ( 'NONE', *, *, #225, .F. ) ;
#117 = PERSON_AND_ORGANIZATION ( #341, #187 ) ;
#118 = VERTEX_POINT ( 'NONE', #178 ) ;
#119 = APPROVAL_PERSON_ORGANIZATION ( #117, #289, #166 ) ;
#120 = DIRECTION ( 'NONE',  ( 0.000000000000000000, -0.5150380749100539335, -0.8571673007021124446 ) ) ;
#121 = DIRECTION ( 'NONE',  ( -0.000000000000000000, -1.000000000000000000, -0.000000000000000000 ) ) ;
#122 = CIRCLE ( 'NONE', #88, 6.499999999999999112 ) ;
#123 = DIRECTION ( 'NONE',  ( 0.000000000000000000, 0.000000000000000000, -1.000000000000000000 ) ) ;
#124 = FACE_OUTER_BOUND ( 'NONE', #9, .T. ) ;
#125 = DIRECTION ( 'NONE',  ( -0.000000000000000000, 1.000000000000000000, 3.008615165611213619E-16 ) ) ;
#126 = AXIS2_PLACEMENT_3D ( 'NONE', #153, #18, #203 ) ;
#127 = FACE_OUTER_BOUND ( 'NONE', #196, .T. ) ;
#128 = CARTESIAN_POINT ( 'NONE',  ( 0.000000000000000000, 0.000000000000000000, 0.000000000000000000 ) ) ;
#129 = VECTOR ( 'NONE', #158, 1000.000000000000000 ) ;
#130 = CARTESIAN_POINT ( 'NONE',  ( 0.000000000000000000, -118.2000000000000028, -3.556183125752454544E-14 ) ) ;
#131 = CIRCLE ( 'NONE', #353, 6.500000000000000000 ) ;
#132 = DIRECTION ( 'NONE',  ( -0.000000000000000000, 1.000000000000000000, 3.008615165611213619E-16 ) ) ;
#133 = VERTEX_POINT ( 'NONE', #149 ) ;
#134 = DIRECTION ( 'NONE',  ( 0.000000000000000000, 0.000000000000000000, -1.000000000000000000 ) ) ;
#135 = PERSON_AND_ORGANIZATION ( #341, #187 ) ;
#136 = PRODUCT_DEFINITION ( 'æœ', '', #198, #300 ) ;
#137 = COORDINATED_UNIVERSAL_TIME_OFFSET ( 8, 0, .AHEAD. ) ;
#138 = COORDINATED_UNIVERSAL_TIME_OFFSET ( 8, 0, .AHEAD. ) ;
#139 = DIRECTION ( 'NONE',  ( 0.000000000000000000, -0.7071067811865463515, -0.7071067811865487940 ) ) ;
#140 = SHAPE_DEFINITION_REPRESENTATION ( #48, #276 ) ;
#141 = ORIENTED_EDGE ( 'NONE', *, *, #184, .F. ) ;
#142 = EDGE_CURVE ( 'NONE', #223, #146, #284, .T. ) ;
#143 = VECTOR ( 'NONE', #47, 1000.000000000000000 ) ;
#144 = ORIENTED_EDGE ( 'NONE', *, *, #142, .T. ) ;
#145 = VERTEX_POINT ( 'NONE', #295 ) ;
#146 = VERTEX_POINT ( 'NONE', #321 ) ;
#147 = ADVANCED_FACE ( 'NONE', ( #152 ), #202, .F. ) ;
#148 = APPROVAL_PERSON_ORGANIZATION ( #135, #111, #4 ) ;
#149 = CARTESIAN_POINT ( 'NONE',  ( -5.292167275488726018E-15, -96.40707389530632554, -3.695386503697844935E-14 ) ) ;
#150 = DIRECTION ( 'NONE',  ( -0.000000000000000000, -1.000000000000000000, -0.000000000000000000 ) ) ;
#151 = CONICAL_SURFACE ( 'NONE', #195, 4.025000000000000355, 0.7853981633974500554 ) ;
#152 = FACE_OUTER_BOUND ( 'NONE', #60, .T. ) ;
#153 = CARTESIAN_POINT ( 'NONE',  ( 0.000000000000000000, 0.000000000000000000, 0.000000000000000000 ) ) ;
#154 = DIRECTION ( 'NONE',  ( -6.982962677686266711E-15, 1.000000000000000000, 0.000000000000000000 ) ) ;
#155 = DIRECTION ( 'NONE',  ( 0.000000000000000000, 0.000000000000000000, -1.000000000000000000 ) ) ;
#156 = EDGE_CURVE ( 'NONE', #227, #197, #131, .T. ) ;
#157 = DIRECTION ( 'NONE',  ( -0.000000000000000000, -1.000000000000000000, -0.000000000000000000 ) ) ;
#158 = DIRECTION ( 'NONE',  ( -0.000000000000000000, 1.000000000000000000, 3.008615165611213619E-16 ) ) ;
#159 = ORIENTED_EDGE ( 'NONE', *, *, #233, .T. ) ;
#160 = VECTOR ( 'NONE', #70, 1000.000000000000000 ) ;
#161 = LINE ( 'NONE', #239, #129 ) ;
#162 = DATE_AND_TIME ( #164, #69 ) ;
#163 = LOCAL_TIME ( 13, 13, 47.00000000000000000, #138 ) ;
#164 = CALENDAR_DATE ( 2026, 15, 5 ) ;
#165 = CLOSED_SHELL ( 'NONE', ( #262, #147, #45, #311, #201, #287, #270, #174, #319, #352, #273 ) ) ;
#166 = APPROVAL_ROLE ( '' ) ;
#167 = EDGE_LOOP ( 'NONE', ( #316, #89 ) ) ;
#168 = DATE_AND_TIME ( #219, #192 ) ;
#169 = ORIENTED_EDGE ( 'NONE', *, *, #184, .T. ) ;
#170 = VECTOR ( 'NONE', #186, 1000.000000000000000 ) ;
#171 = CALENDAR_DATE ( 2026, 15, 5 ) ;
#172 = ORIENTED_EDGE ( 'NONE', *, *, #65, .F. ) ;
#173 = VERTEX_POINT ( 'NONE', #43 ) ;
#174 = ADVANCED_FACE ( 'NONE', ( #260 ), #20, .T. ) ;
#175 = CC_DESIGN_DATE_AND_TIME_ASSIGNMENT ( #162, #215, ( #14 ) ) ;
#176 = DIRECTION ( 'NONE',  ( -0.000000000000000000, -1.000000000000000000, -0.000000000000000000 ) ) ;
#177 = CARTESIAN_POINT ( 'NONE',  ( 0.000000000000000000, -98.45000000000001705, -3.695386503697844935E-14 ) ) ;
#178 = CARTESIAN_POINT ( 'NONE',  ( 0.000000000000000000, -117.5750000000000313, -3.400000000000034994 ) ) ;
#179 = AXIS2_PLACEMENT_3D ( 'NONE', #286, #318, #39 ) ;
#180 = CARTESIAN_POINT ( 'NONE',  ( 0.000000000000000000, -1.955599857647288310E-15, -5.883647389584762586E-31 ) ) ;
#181 = DIRECTION ( 'NONE',  ( -0.000000000000000000, -1.000000000000000000, -0.000000000000000000 ) ) ;
#182 = DIRECTION ( 'NONE',  ( -0.000000000000000000, -1.000000000000000000, -0.000000000000000000 ) ) ;
#183 = AXIS2_PLACEMENT_3D ( 'NONE', #94, #154, #73 ) ;
#184 = EDGE_CURVE ( 'NONE', #66, #281, #99, .T. ) ;
#185 = DIRECTION ( 'NONE',  ( 0.000000000000000000, 0.000000000000000000, 1.000000000000000000 ) ) ;
#186 = DIRECTION ( 'NONE',  ( -0.000000000000000000, -1.000000000000000000, -0.000000000000000000 ) ) ;
#187 = ORGANIZATION ( 'æœª', 'æœª', '' ) ;
#188 = ORIENTED_EDGE ( 'NONE', *, *, #209, .F. ) ;
#189 = DIRECTION ( 'NONE',  ( -0.000000000000000000, 1.000000000000000000, 3.008615165611213619E-16 ) ) ;
#190 = AXIS2_PLACEMENT_3D ( 'NONE', #356, #150, #42 ) ;
#191 = CARTESIAN_POINT ( 'NONE',  ( 0.000000000000000000, -118.2000000000000313, -3.695386503697844935E-14 ) ) ;
#192 = LOCAL_TIME ( 13, 13, 47.00000000000000000, #306 ) ;
#193 = DIRECTION ( 'NONE',  ( 0.000000000000000000, 0.000000000000000000, 1.000000000000000000 ) ) ;
#194 = ORIENTED_EDGE ( 'NONE', *, *, #22, .T. ) ;
#195 = AXIS2_PLACEMENT_3D ( 'NONE', #191, #157, #330 ) ;
#196 = EDGE_LOOP ( 'NONE', ( #113, #92, #90, #314 ) ) ;
#197 = VERTEX_POINT ( 'NONE', #207 ) ;
#198 = PRODUCT_DEFINITION_FORMATION_WITH_SPECIFIED_SOURCE ( 'ä»', '', #72, .NOT_KNOWN. ) ;
#199 = PERSON_AND_ORGANIZATION ( #341, #187 ) ;
#200 = ORIENTED_EDGE ( 'NONE', *, *, #65, .T. ) ;
#201 = ADVANCED_FACE ( 'NONE', ( #124 ), #40, .T. ) ;
#202 = CYLINDRICAL_SURFACE ( 'NONE', #190, 3.399999999999996803 ) ;
#203 = DIRECTION ( 'NONE',  ( 0.000000000000000000, -3.008615165611213126E-16, 1.000000000000000000 ) ) ;
#204 = CARTESIAN_POINT ( 'NONE',  ( 0.000000000000000000, -118.2000000000000313, -3.695386503697844935E-14 ) ) ;
#205 = CARTESIAN_POINT ( 'NONE',  ( 4.163799117100996122E-16, -98.45000000000001705, 3.399999999999959055 ) ) ;
#206 = AXIS2_PLACEMENT_3D ( 'NONE', #130, #104, #81 ) ;
#207 = CARTESIAN_POINT ( 'NONE',  ( 7.960204194457818157E-16, -118.2000000000000028, -6.500000000000035527 ) ) ;
#208 = DIRECTION ( 'NONE',  ( 0.000000000000000000, 0.000000000000000000, -1.000000000000000000 ) ) ;
#209 = EDGE_CURVE ( 'NONE', #86, #299, #344, .T. ) ;
#210 = DIRECTION ( 'NONE',  ( -0.000000000000000000, -1.000000000000000000, -0.000000000000000000 ) ) ;
#211 = DIRECTION ( 'NONE',  ( -0.000000000000000000, -1.000000000000000000, -0.000000000000000000 ) ) ;
#212 = ORIENTED_EDGE ( 'NONE', *, *, #326, .F. ) ;
#213 = FACE_OUTER_BOUND ( 'NONE', #64, .T. ) ;
#214 =( LENGTH_UNIT ( ) NAMED_UNIT ( * ) SI_UNIT ( .MILLI., .METRE. ) );
#215 = DATE_TIME_ROLE ( 'classification_date' ) ;
#216 = ORIENTED_EDGE ( 'NONE', *, *, #326, .T. ) ;
#217 = EDGE_CURVE ( 'NONE', #118, #349, #336, .T. ) ;
#218 = AXIS2_PLACEMENT_3D ( 'NONE', #128, #189, #51 ) ;
#219 = CALENDAR_DATE ( 2026, 15, 5 ) ;
#220 = EDGE_LOOP ( 'NONE', ( #36, #38, #194, #159 ) ) ;
#221 = AXIS2_PLACEMENT_3D ( 'NONE', #358, #100, #234 ) ;
#222 = APPROVAL_STATUS ( 'not_yet_approved' ) ;
#223 = VERTEX_POINT ( 'NONE', #258 ) ;
#224 = DATE_TIME_ROLE ( 'creation_date' ) ;
#225 = EDGE_CURVE ( 'NONE', #281, #66, #277, .T. ) ;
#226 = ORIENTED_EDGE ( 'NONE', *, *, #348, .F. ) ;
#227 = VERTEX_POINT ( 'NONE', #354 ) ;
#228 = LINE ( 'NONE', #351, #160 ) ;
#229 = AXIS2_PLACEMENT_3D ( 'NONE', #67, #176, #123 ) ;
#230 = UNCERTAINTY_MEASURE_WITH_UNIT (LENGTH_MEASURE( 1.000000000000000082E-05 ), #214, 'distance_accuracy_value', 'NONE');
#231 = DIRECTION ( 'NONE',  ( 0.000000000000000000, 0.000000000000000000, -1.000000000000000000 ) ) ;
#232 = DIRECTION ( 'NONE',  ( -0.000000000000000000, 1.000000000000000000, 3.008615165611213619E-16 ) ) ;
#233 = EDGE_CURVE ( 'NONE', #145, #173, #267, .T. ) ;
#234 = DIRECTION ( 'NONE',  ( 0.000000000000000000, 0.000000000000000000, 1.000000000000000000 ) ) ;
#235 = DIRECTION ( 'NONE',  ( -0.000000000000000000, -1.000000000000000000, -0.000000000000000000 ) ) ;
#236 = EDGE_CURVE ( 'NONE', #197, #227, #10, .T. ) ;
#237 = FACE_OUTER_BOUND ( 'NONE', #12, .T. ) ;
#238 = CC_DESIGN_PERSON_AND_ORGANIZATION_ASSIGNMENT ( #63, #56, ( #14 ) ) ;
#239 = CARTESIAN_POINT ( 'NONE',  ( 0.000000000000000000, -1.955599857647288310E-15, 6.499999999999999112 ) ) ;
#240 = FACE_BOUND ( 'NONE', #115, .T. ) ;
#241 = VECTOR ( 'NONE', #303, 1000.000000000000000 ) ;
#242 = DIRECTION ( 'NONE',  ( -0.000000000000000000, 1.000000000000000000, 3.008615165611213619E-16 ) ) ;
#243 = ORIENTED_EDGE ( 'NONE', *, *, #84, .T. ) ;
#244 = VECTOR ( 'NONE', #132, 1000.000000000000000 ) ;
#245 = MECHANICAL_CONTEXT ( 'NONE', #282, 'mechanical' ) ;
#246 = CARTESIAN_POINT ( 'NONE',  ( 0.000000000000000000, 0.000000000000000000, 0.000000000000000000 ) ) ;
#247 = CC_DESIGN_DATE_AND_TIME_ASSIGNMENT ( #29, #224, ( #136 ) ) ;
#248 = PERSON_AND_ORGANIZATION_ROLE ( 'creator' ) ;
#249 = ORIENTED_EDGE ( 'NONE', *, *, #345, .T. ) ;
#250 = LOCAL_TIME ( 13, 13, 47.00000000000000000, #61 ) ;
#251 = DIRECTION ( 'NONE',  ( 1.000000000000000000, 0.000000000000000000, 0.000000000000000000 ) ) ;
#252 = EDGE_LOOP ( 'NONE', ( #268, #200, #312 ) ) ;
#253 = EDGE_CURVE ( 'NONE', #349, #118, #329, .T. ) ;
#254 = CONICAL_SURFACE ( 'NONE', #41, 4.025000000000000355, 0.7853981633974500554 ) ;
#255 = EDGE_LOOP ( 'NONE', ( #226, #343, #249, #346 ) ) ;
#256 = ORIENTED_EDGE ( 'NONE', *, *, #275, .F. ) ;
#257 = EDGE_LOOP ( 'NONE', ( #105, #317 ) ) ;
#258 = CARTESIAN_POINT ( 'NONE',  ( 0.000000000000000000, -3.911199715294576621E-15, 6.499999999999999112 ) ) ;
#259 = FACE_OUTER_BOUND ( 'NONE', #27, .T. ) ;
#260 = FACE_OUTER_BOUND ( 'NONE', #255, .T. ) ;
#261 = DIRECTION ( 'NONE',  ( 0.000000000000000000, 0.000000000000000000, -1.000000000000000000 ) ) ;
#262 = ADVANCED_FACE ( 'NONE', ( #108 ), #254, .F. ) ;
#263 = PLANE ( 'NONE',  #103 ) ;
#264 = LINE ( 'NONE', #269, #170 ) ;
#265 = CARTESIAN_POINT ( 'NONE',  ( 0.000000000000000000, -98.45000000000001705, -3.400000000000032774 ) ) ;
#266 = CARTESIAN_POINT ( 'NONE',  ( 3.808651545348268472E-15, 1.329783579673954269E-29, 0.000000000000000000 ) ) ;
#267 = CIRCLE ( 'NONE', #309, 4.025000000000000355 ) ;
#268 = ORIENTED_EDGE ( 'NONE', *, *, #110, .F. ) ;
#269 = CARTESIAN_POINT ( 'NONE',  ( 0.000000000000000000, -118.2000000000000313, -3.400000000000033662 ) ) ;
#270 = ADVANCED_FACE ( 'NONE', ( #55, #237 ), #296, .F. ) ;
#271 = CALENDAR_DATE ( 2026, 15, 5 ) ;
#272 = AXIS2_PLACEMENT_3D ( 'NONE', #3, #211, #155 ) ;
#273 = ADVANCED_FACE ( 'NONE', ( #335 ), #151, .F. ) ;
#274 = CALENDAR_DATE ( 2026, 15, 5 ) ;
#275 = EDGE_CURVE ( 'NONE', #66, #349, #328, .T. ) ;
#276 = ADVANCED_BREP_SHAPE_REPRESENTATION ( '\X2\740394f0\X0\-\X2\6746\X0\_middle', ( #6, #350 ), #50 ) ;
#277 = CIRCLE ( 'NONE', #71, 3.399999999999995914 ) ;
#278 =( NAMED_UNIT ( * ) PLANE_ANGLE_UNIT ( ) SI_UNIT ( $, .RADIAN. ) );
#279 = LINE ( 'NONE', #33, #290 ) ;
#280 = PERSON_AND_ORGANIZATION_ROLE ( 'creator' ) ;
#281 = VERTEX_POINT ( 'NONE', #265 ) ;
#282 = APPLICATION_CONTEXT ( 'configuration controlled 3d designs of mechanical parts and assemblies' ) ;
#283 = ORIENTED_EDGE ( 'NONE', *, *, #156, .F. ) ;
#284 = CIRCLE ( 'NONE', #25, 6.499999999999999112 ) ;
#285 = ORIENTED_EDGE ( 'NONE', *, *, #32, .T. ) ;
#286 = CARTESIAN_POINT ( 'NONE',  ( 3.808651545348268472E-15, 1.329783579673954269E-29, 0.000000000000000000 ) ) ;
#287 = ADVANCED_FACE ( 'NONE', ( #240, #21 ), #263, .T. ) ;
#288 = CARTESIAN_POINT ( 'NONE',  ( 2.859550276009069890E-15, 6.670297055599254656E-30, -7.750000000000000000 ) ) ;
#289 = APPROVAL ( #58, 'æœª' ) ;
#290 = VECTOR ( 'NONE', #139, 1000.000000000000000 ) ;
#291 = DIRECTION ( 'NONE',  ( 0.000000000000000000, -3.008615165611213126E-16, 1.000000000000000000 ) ) ;
#292 = DIRECTION ( 'NONE',  ( 0.000000000000000000, 0.000000000000000000, -1.000000000000000000 ) ) ;
#293 = LOCAL_TIME ( 13, 13, 47.00000000000000000, #137 ) ;
#294 = CC_DESIGN_APPROVAL ( #337, ( #198 ) ) ;
#295 = CARTESIAN_POINT ( 'NONE',  ( 0.000000000000000000, -118.2000000000000313, -4.025000000000037659 ) ) ;
#296 = PLANE ( 'NONE',  #206 ) ;
#297 = LINE ( 'NONE', #331, #241 ) ;
#298 = CARTESIAN_POINT ( 'NONE',  ( 0.000000000000000000, -117.5750000000000313, -3.695386503697844935E-14 ) ) ;
#299 = VERTEX_POINT ( 'NONE', #76 ) ;
#300 = DESIGN_CONTEXT ( 'detailed design', #302, 'design' ) ;
#301 = CARTESIAN_POINT ( 'NONE',  ( 0.000000000000000000, -118.2000000000000313, -3.695386503697844935E-14 ) ) ;
#302 = APPLICATION_CONTEXT ( 'configuration controlled 3d designs of mechanical parts and assemblies' ) ;
#303 = DIRECTION ( 'NONE',  ( 8.659560562354948882E-17, -0.7071067811865463515, 0.7071067811865487940 ) ) ;
#304 = EDGE_CURVE ( 'NONE', #349, #173, #297, .T. ) ;
#305 = CC_DESIGN_PERSON_AND_ORGANIZATION_ASSIGNMENT ( #199, #280, ( #198 ) ) ;
#306 = COORDINATED_UNIVERSAL_TIME_OFFSET ( 8, 0, .AHEAD. ) ;
#307 = PERSON_AND_ORGANIZATION ( #341, #187 ) ;
#308 = EDGE_LOOP ( 'NONE', ( #80, #5, #243, #332 ) ) ;
#309 = AXIS2_PLACEMENT_3D ( 'NONE', #355, #182, #24 ) ;
#310 = PERSON_AND_ORGANIZATION_ROLE ( 'design_owner' ) ;
#311 = ADVANCED_FACE ( 'NONE', ( #127 ), #2, .T. ) ;
#312 = ORIENTED_EDGE ( 'NONE', *, *, #225, .T. ) ;
#313 = DATE_AND_TIME ( #274, #163 ) ;
#314 = ORIENTED_EDGE ( 'NONE', *, *, #345, .F. ) ;
#315 = PERSON_AND_ORGANIZATION_ROLE ( 'design_supplier' ) ;
#316 = ORIENTED_EDGE ( 'NONE', *, *, #233, .F. ) ;
#317 = ORIENTED_EDGE ( 'NONE', *, *, #209, .T. ) ;
#318 = DIRECTION ( 'NONE',  ( 6.982962677686266711E-15, -1.000000000000000000, 0.000000000000000000 ) ) ;
#319 = ADVANCED_FACE ( 'NONE', ( #79 ), #322, .F. ) ;
#320 = CC_DESIGN_PERSON_AND_ORGANIZATION_ASSIGNMENT ( #83, #310, ( #72 ) ) ;
#321 = CARTESIAN_POINT ( 'NONE',  ( 7.960204194457794491E-16, 0.000000000000000000, -6.499999999999999112 ) ) ;
#322 = CONICAL_SURFACE ( 'NONE', #272, 3.399999999999995914, 1.029744258676654756 ) ;
#323 = CARTESIAN_POINT ( 'NONE',  ( 0.000000000000000000, -98.45000000000001705, -3.400000000000032774 ) ) ;
#324 = ORIENTED_EDGE ( 'NONE', *, *, #236, .F. ) ;
#325 = AXIS2_PLACEMENT_3D ( 'NONE', #204, #181, #292 ) ;
#326 = EDGE_CURVE ( 'NONE', #281, #118, #264, .T. ) ;
#327 = DIRECTION ( 'NONE',  ( 0.000000000000000000, -3.008615165611213126E-16, 1.000000000000000000 ) ) ;
#328 = LINE ( 'NONE', #78, #143 ) ;
#329 = CIRCLE ( 'NONE', #59, 3.399999999999998135 ) ;
#330 = DIRECTION ( 'NONE',  ( 0.000000000000000000, 0.000000000000000000, -1.000000000000000000 ) ) ;
#331 = CARTESIAN_POINT ( 'NONE',  ( 4.929203366568097207E-16, -118.2000000000000313, 4.024999999999963940 ) ) ;
#332 = ORIENTED_EDGE ( 'NONE', *, *, #22, .F. ) ;
#333 = CYLINDRICAL_SURFACE ( 'NONE', #93, 3.399999999999996803 ) ;
#334 = CC_DESIGN_APPROVAL ( #289, ( #136 ) ) ;
#335 = FACE_OUTER_BOUND ( 'NONE', #220, .T. ) ;
#336 = CIRCLE ( 'NONE', #229, 3.399999999999998135 ) ;
#337 = APPROVAL ( #222, 'æœª' ) ;
#338 = COORDINATED_UNIVERSAL_TIME_OFFSET ( 8, 0, .AHEAD. ) ;
#339 = ORIENTED_EDGE ( 'NONE', *, *, #275, .T. ) ;
#340 = APPROVAL_PERSON_ORGANIZATION ( #347, #337, #91 ) ;
#341 = PERSON ( 'æœª', 'æœª', 'æœª', ('æœª'), ('æœª'), ('æœª') ) ;
#342 = SECURITY_CLASSIFICATION_LEVEL ( 'unclassified' ) ;
#343 = ORIENTED_EDGE ( 'NONE', *, *, #236, .T. ) ;
#344 = CIRCLE ( 'NONE', #221, 7.750000000000000000 ) ;
#345 = EDGE_CURVE ( 'NONE', #227, #223, #161, .T. ) ;
#346 = ORIENTED_EDGE ( 'NONE', *, *, #32, .F. ) ;
#347 = PERSON_AND_ORGANIZATION ( #341, #187 ) ;
#348 = EDGE_CURVE ( 'NONE', #197, #146, #1, .T. ) ;
#349 = VERTEX_POINT ( 'NONE', #106 ) ;
#350 = AXIS2_PLACEMENT_3D ( 'NONE', #246, #193, #251 ) ;
#351 = CARTESIAN_POINT ( 'NONE',  ( 4.163799117100996122E-16, -98.45000000000001705, 3.399999999999959055 ) ) ;
#352 = ADVANCED_FACE ( 'NONE', ( #213 ), #333, .F. ) ;
#353 = AXIS2_PLACEMENT_3D ( 'NONE', #17, #232, #44 ) ;
#354 = CARTESIAN_POINT ( 'NONE',  ( 0.000000000000000000, -118.2000000000000028, 6.499999999999964473 ) ) ;
#355 = CARTESIAN_POINT ( 'NONE',  ( 0.000000000000000000, -118.2000000000000313, -3.695386503697844935E-14 ) ) ;
#356 = CARTESIAN_POINT ( 'NONE',  ( 0.000000000000000000, -118.2000000000000313, -3.695386503697844935E-14 ) ) ;
#357 = CIRCLE ( 'NONE', #179, 7.750000000000000000 ) ;
#358 = CARTESIAN_POINT ( 'NONE',  ( 3.808651545348268472E-15, 1.329783579673954269E-29, 0.000000000000000000 ) ) ;
#359 = DIRECTION ( 'NONE',  ( 6.982962677686266711E-15, -1.000000000000000000, 0.000000000000000000 ) ) ;
ENDSEC;
END-ISO-10303-21;
