ISO-10303-21;
HEADER;
FILE_DESCRIPTION (( 'STEP AP203' ),
    '1' );
FILE_NAME ('Çò½Â½Ó¿Ú-ÉÏ&ÏÂ.STEP',
    '2026-05-21T04:07:49',
    ( '' ),
    ( '' ),
    'SwSTEP 2.0',
    'SolidWorks 2025',
    '' );
FILE_SCHEMA (( 'CONFIG_CONTROL_DESIGN' ));
ENDSEC;

DATA;
#1 = EDGE_LOOP ( 'NONE', ( #107, #283 ) ) ;
#2 = FACE_BOUND ( 'NONE', #188, .T. ) ;
#3 = CIRCLE ( 'NONE', #227, 10.75000000000000000 ) ;
#4 = APPLICATION_CONTEXT ( 'configuration controlled 3d designs of mechanical parts and assemblies' ) ;
#5 = ORIENTED_EDGE ( 'NONE', *, *, #155, .F. ) ;
#6 = DIRECTION ( 'NONE',  ( -1.000000000000000000, 0.000000000000000000, -6.982962677686266711E-15 ) ) ;
#7 = ORIENTED_EDGE ( 'NONE', *, *, #139, .F. ) ;
#8 = CIRCLE ( 'NONE', #195, 11.09909906253656153 ) ;
#9 = APPROVAL_PERSON_ORGANIZATION ( #90, #111, #259 ) ;
#10 = CARTESIAN_POINT ( 'NONE',  ( -1.000000000000000000, 0.000000000000000000, -9.500000000000000000 ) ) ;
#11 = AXIS2_PLACEMENT_3D ( 'NONE', #291, #148, #309 ) ;
#12 = APPLICATION_PROTOCOL_DEFINITION ( 'international standard', 'config_control_design', 1994, #4 ) ;
#13 = PERSON_AND_ORGANIZATION ( #162, #302 ) ;
#14 = EDGE_CURVE ( 'NONE', #23, #222, #8, .T. ) ;
#15 = ORIENTED_EDGE ( 'NONE', *, *, #73, .F. ) ;
#16 = DIRECTION ( 'NONE',  ( 0.000000000000000000, 0.000000000000000000, 1.000000000000000000 ) ) ;
#17 = APPROVAL_STATUS ( 'not_yet_approved' ) ;
#18 = ORIENTED_EDGE ( 'NONE', *, *, #282, .T. ) ;
#19 = EDGE_CURVE ( 'NONE', #143, #274, #263, .T. ) ;
#20 = DATE_AND_TIME ( #32, #287 ) ;
#21 = PRODUCT_DEFINITION_FORMATION_WITH_SPECIFIED_SOURCE ( 'ä»', '', #218, .NOT_KNOWN. ) ;
#22 = ORIENTED_EDGE ( 'NONE', *, *, #96, .T. ) ;
#23 = VERTEX_POINT ( 'NONE', #290 ) ;
#24 = CARTESIAN_POINT ( 'NONE',  ( 0.000000000000000000, 0.000000000000000000, 0.000000000000000000 ) ) ;
#25 = CARTESIAN_POINT ( 'NONE',  ( -1.500000000000000888, 0.000000000000000000, 0.000000000000000000 ) ) ;
#26 = DIRECTION ( 'NONE',  ( 1.000000000000000000, -0.000000000000000000, -0.000000000000000000 ) ) ;
#27 = CC_DESIGN_PERSON_AND_ORGANIZATION_ASSIGNMENT ( #185, #93, ( #21 ) ) ;
#28 = AXIS2_PLACEMENT_3D ( 'NONE', #77, #163, #112 ) ;
#29 = PLANE ( 'NONE',  #54 ) ;
#30 = DIRECTION ( 'NONE',  ( 1.000000000000000000, -0.000000000000000000, -0.000000000000000000 ) ) ;
#31 = APPROVAL ( #201, 'æœª' ) ;
#32 = CALENDAR_DATE ( 2026, 21, 5 ) ;
#33 = EDGE_CURVE ( 'NONE', #222, #23, #299, .T. ) ;
#34 = CALENDAR_DATE ( 2026, 21, 5 ) ;
#35 = ORIENTED_EDGE ( 'NONE', *, *, #155, .T. ) ;
#36 = CIRCLE ( 'NONE', #295, 9.500000000000000000 ) ;
#37 = AXIS2_PLACEMENT_3D ( 'NONE', #76, #153, #179 ) ;
#38 = CALENDAR_DATE ( 2026, 21, 5 ) ;
#39 = PERSON_AND_ORGANIZATION ( #162, #302 ) ;
#40 = APPROVAL_PERSON_ORGANIZATION ( #118, #31, #236 ) ;
#41 = DIRECTION ( 'NONE',  ( 0.000000000000000000, 0.000000000000000000, -1.000000000000000000 ) ) ;
#42 = VERTEX_POINT ( 'NONE', #246 ) ;
#43 = CARTESIAN_POINT ( 'NONE',  ( 7.820918199008618716E-14, 1.371604415045035513E-15, -11.19999999999999929 ) ) ;
#44 = FACE_OUTER_BOUND ( 'NONE', #68, .T. ) ;
#45 = ORIENTED_EDGE ( 'NONE', *, *, #197, .F. ) ;
#46 = DIRECTION ( 'NONE',  ( 0.000000000000000000, 0.000000000000000000, -1.000000000000000000 ) ) ;
#47 = VERTEX_POINT ( 'NONE', #198 ) ;
#48 = CARTESIAN_POINT ( 'NONE',  ( -1.000000000000000000, 0.000000000000000000, -10.75000000000000000 ) ) ;
#49 = CC_DESIGN_PERSON_AND_ORGANIZATION_ASSIGNMENT ( #13, #114, ( #135 ) ) ;
#50 = CC_DESIGN_APPROVAL ( #31, ( #145 ) ) ;
#51 = CARTESIAN_POINT ( 'NONE',  ( -1.500000000000000888, 1.163414459189985485E-15, 9.500000000000000000 ) ) ;
#52 = VECTOR ( 'NONE', #30, 1000.000000000000000 ) ;
#53 = FACE_BOUND ( 'NONE', #238, .T. ) ;
#54 = AXIS2_PLACEMENT_3D ( 'NONE', #134, #226, #254 ) ;
#55 = ADVANCED_BREP_SHAPE_REPRESENTATION ( '\X2\740394f063a553e3\X0\-\X2\4e0a\X0\&\X2\4e0b\X0\', ( #230, #116 ), #164 ) ;
#56 = DIRECTION ( 'NONE',  ( 1.000000000000000000, -0.000000000000000000, -0.000000000000000000 ) ) ;
#57 = EDGE_CURVE ( 'NONE', #137, #42, #113, .T. ) ;
#58 = VECTOR ( 'NONE', #175, 1000.000000000000000 ) ;
#59 = MECHANICAL_CONTEXT ( 'NONE', #253, 'mechanical' ) ;
#60 = EDGE_LOOP ( 'NONE', ( #171, #281 ) ) ;
#61 = PERSON_AND_ORGANIZATION ( #162, #302 ) ;
#62 = CARTESIAN_POINT ( 'NONE',  ( 0.000000000000000000, 0.000000000000000000, 0.000000000000000000 ) ) ;
#63 = VECTOR ( 'NONE', #109, 1000.000000000000000 ) ;
#64 = PERSON_AND_ORGANIZATION ( #162, #302 ) ;
#65 = FACE_OUTER_BOUND ( 'NONE', #66, .T. ) ;
#66 = EDGE_LOOP ( 'NONE', ( #266, #261, #18, #173 ) ) ;
#67 = ADVANCED_FACE ( 'NONE', ( #200 ), #298, .F. ) ;
#68 = EDGE_LOOP ( 'NONE', ( #211, #288 ) ) ;
#69 = AXIS2_PLACEMENT_3D ( 'NONE', #72, #271, #46 ) ;
#70 = ORIENTED_EDGE ( 'NONE', *, *, #132, .F. ) ;
#71 = DIRECTION ( 'NONE',  ( 0.000000000000000000, 0.000000000000000000, -1.000000000000000000 ) ) ;
#72 = CARTESIAN_POINT ( 'NONE',  ( 0.000000000000000000, 0.000000000000000000, 0.000000000000000000 ) ) ;
#73 = EDGE_CURVE ( 'NONE', #274, #202, #257, .T. ) ;
#74 = CARTESIAN_POINT ( 'NONE',  ( -1.500000000000001110, 3.903127820947819660E-17, 0.000000000000000000 ) ) ;
#75 = CYLINDRICAL_SURFACE ( 'NONE', #154, 9.500000000000000000 ) ;
#76 = CARTESIAN_POINT ( 'NONE',  ( 0.000000000000000000, 0.000000000000000000, 0.000000000000000000 ) ) ;
#77 = CARTESIAN_POINT ( 'NONE',  ( -1.000000000000000000, 0.000000000000000000, 0.000000000000000000 ) ) ;
#78 = CYLINDRICAL_SURFACE ( 'NONE', #140, 9.500000000000000000 ) ;
#79 = CIRCLE ( 'NONE', #258, 9.500000000000000000 ) ;
#80 = LOCAL_TIME ( 12, 7, 49.00000000000000000, #187 ) ;
#81 = CARTESIAN_POINT ( 'NONE',  ( -1.000000000000000000, 0.000000000000000000, -10.75000000000000000 ) ) ;
#82 = UNCERTAINTY_MEASURE_WITH_UNIT (LENGTH_MEASURE( 1.000000000000000082E-05 ), #84, 'distance_accuracy_value', 'NONE');
#83 = CC_DESIGN_APPROVAL ( #142, ( #21 ) ) ;
#84 =( LENGTH_UNIT ( ) NAMED_UNIT ( * ) SI_UNIT ( .MILLI., .METRE. ) );
#85 = CLOSED_SHELL ( 'NONE', ( #121, #103, #214, #157, #306, #67, #190, #250 ) ) ;
#86 = CARTESIAN_POINT ( 'NONE',  ( -1.000000000000000000, 0.000000000000000000, 0.000000000000000000 ) ) ;
#87 = CC_DESIGN_PERSON_AND_ORGANIZATION_ASSIGNMENT ( #61, #138, ( #21 ) ) ;
#88 =( NAMED_UNIT ( * ) PLANE_ANGLE_UNIT ( ) SI_UNIT ( $, .RADIAN. ) );
#89 = CC_DESIGN_SECURITY_CLASSIFICATION ( #145, ( #21 ) ) ;
#90 = PERSON_AND_ORGANIZATION ( #162, #302 ) ;
#91 = DATE_TIME_ROLE ( 'classification_date' ) ;
#92 =( NAMED_UNIT ( * ) SI_UNIT ( $, .STERADIAN. ) SOLID_ANGLE_UNIT ( ) );
#93 = PERSON_AND_ORGANIZATION_ROLE ( 'design_supplier' ) ;
#94 = DIRECTION ( 'NONE',  ( 0.000000000000000000, 0.000000000000000000, -1.000000000000000000 ) ) ;
#95 = EDGE_LOOP ( 'NONE', ( #125, #264 ) ) ;
#96 = EDGE_CURVE ( 'NONE', #42, #137, #206, .T. ) ;
#97 = AXIS2_PLACEMENT_3D ( 'NONE', #86, #56, #181 ) ;
#98 = ORIENTED_EDGE ( 'NONE', *, *, #73, .T. ) ;
#99 = DIRECTION ( 'NONE',  ( 2.282530889443167084E-17, 1.000000000000000000, 0.000000000000000000 ) ) ;
#100 = CARTESIAN_POINT ( 'NONE',  ( 0.000000000000000000, 1.316495309083404618E-15, 10.75000000000000000 ) ) ;
#101 = EDGE_LOOP ( 'NONE', ( #15, #177, #131, #210 ) ) ;
#102 = AXIS2_PLACEMENT_3D ( 'NONE', #24, #294, #217 ) ;
#103 = ADVANCED_FACE ( 'NONE', ( #65 ), #240, .F. ) ;
#104 = DIRECTION ( 'NONE',  ( 2.282530889443167084E-17, 1.000000000000000000, 0.000000000000000000 ) ) ;
#105 = FACE_OUTER_BOUND ( 'NONE', #301, .T. ) ;
#106 = DIRECTION ( 'NONE',  ( -6.982962677686267499E-15, 0.000000000000000000, 1.000000000000000000 ) ) ;
#107 = ORIENTED_EDGE ( 'NONE', *, *, #33, .F. ) ;
#108 = DIRECTION ( 'NONE',  ( -6.982962677686266711E-15, 0.000000000000000000, 1.000000000000000000 ) ) ;
#109 = DIRECTION ( 'NONE',  ( 1.000000000000000000, -0.000000000000000000, -0.000000000000000000 ) ) ;
#110 = CIRCLE ( 'NONE', #37, 11.19999999999999929 ) ;
#111 = APPROVAL ( #17, 'æœª' ) ;
#112 = DIRECTION ( 'NONE',  ( 0.000000000000000000, 0.000000000000000000, -1.000000000000000000 ) ) ;
#113 = CIRCLE ( 'NONE', #28, 10.75000000000000000 ) ;
#114 = PERSON_AND_ORGANIZATION_ROLE ( 'creator' ) ;
#115 = COORDINATED_UNIVERSAL_TIME_OFFSET ( 8, 0, .AHEAD. ) ;
#116 = AXIS2_PLACEMENT_3D ( 'NONE', #62, #16, #184 ) ;
#117 = DATE_TIME_ROLE ( 'creation_date' ) ;
#118 = PERSON_AND_ORGANIZATION ( #162, #302 ) ;
#119 = CALENDAR_DATE ( 2026, 21, 5 ) ;
#120 = ORIENTED_EDGE ( 'NONE', *, *, #297, .T. ) ;
#121 = ADVANCED_FACE ( 'NONE', ( #105 ), #75, .F. ) ;
#122 = ORIENTED_EDGE ( 'NONE', *, *, #282, .F. ) ;
#123 = DIRECTION ( 'NONE',  ( 1.000000000000000000, -0.000000000000000000, -0.000000000000000000 ) ) ;
#124 = DIRECTION ( 'NONE',  ( 1.000000000000000000, 0.000000000000000000, 0.000000000000000000 ) ) ;
#125 = ORIENTED_EDGE ( 'NONE', *, *, #296, .F. ) ;
#126 = CARTESIAN_POINT ( 'NONE',  ( -1.000000000000000000, 0.000000000000000000, 0.000000000000000000 ) ) ;
#127 = CARTESIAN_POINT ( 'NONE',  ( -1.500000000000000888, 11.09909906253656153, 0.000000000000000000 ) ) ;
#128 = VERTEX_POINT ( 'NONE', #129 ) ;
#129 = CARTESIAN_POINT ( 'NONE',  ( -7.820918199008618716E-14, 0.000000000000000000, 11.19999999999999929 ) ) ;
#130 = PLANE ( 'NONE',  #180 ) ;
#131 = ORIENTED_EDGE ( 'NONE', *, *, #197, .T. ) ;
#132 = EDGE_CURVE ( 'NONE', #308, #202, #235, .T. ) ;
#133 = AXIS2_PLACEMENT_3D ( 'NONE', #221, #6, #106 ) ;
#134 = CARTESIAN_POINT ( 'NONE',  ( -1.500000000000000666, 13.49981071811114930, -11.19999999999999929 ) ) ;
#135 = PRODUCT_DEFINITION ( 'æœ', '', #21, #255 ) ;
#136 = DIRECTION ( 'NONE',  ( 1.000000000000000000, 0.000000000000000000, 0.000000000000000000 ) ) ;
#137 = VERTEX_POINT ( 'NONE', #48 ) ;
#138 = PERSON_AND_ORGANIZATION_ROLE ( 'creator' ) ;
#139 = EDGE_CURVE ( 'NONE', #274, #143, #79, .T. ) ;
#140 = AXIS2_PLACEMENT_3D ( 'NONE', #243, #26, #178 ) ;
#141 = COORDINATED_UNIVERSAL_TIME_OFFSET ( 8, 0, .AHEAD. ) ;
#142 = APPROVAL ( #183, 'æœª' ) ;
#143 = VERTEX_POINT ( 'NONE', #286 ) ;
#144 = CARTESIAN_POINT ( 'NONE',  ( -1.000000000000000000, 0.000000000000000000, 0.000000000000000000 ) ) ;
#145 = SECURITY_CLASSIFICATION ( '', '', #232 ) ;
#146 = LINE ( 'NONE', #273, #58 ) ;
#147 = ORIENTED_EDGE ( 'NONE', *, *, #57, .T. ) ;
#148 = DIRECTION ( 'NONE',  ( 1.000000000000000000, 0.000000000000000000, 0.000000000000000000 ) ) ;
#149 = VERTEX_POINT ( 'NONE', #43 ) ;
#150 = FACE_OUTER_BOUND ( 'NONE', #101, .T. ) ;
#151 = DIRECTION ( 'NONE',  ( 1.953675999063879737E-17, 1.000000000000000000, 0.000000000000000000 ) ) ;
#152 = DIRECTION ( 'NONE',  ( 0.000000000000000000, 0.000000000000000000, -1.000000000000000000 ) ) ;
#153 = DIRECTION ( 'NONE',  ( -1.000000000000000000, 0.000000000000000000, -6.982962677686266711E-15 ) ) ;
#154 = AXIS2_PLACEMENT_3D ( 'NONE', #212, #272, #94 ) ;
#155 = EDGE_CURVE ( 'NONE', #202, #308, #36, .T. ) ;
#156 = LINE ( 'NONE', #81, #63 ) ;
#157 = ADVANCED_FACE ( 'NONE', ( #192, #174 ), #242, .F. ) ;
#158 = CARTESIAN_POINT ( 'NONE',  ( -2.000000000000000000, 1.163414459189985485E-15, 9.500000000000000000 ) ) ;
#159 = LOCAL_TIME ( 12, 7, 49.00000000000000000, #115 ) ;
#160 = EDGE_CURVE ( 'NONE', #42, #189, #199, .T. ) ;
#161 = COORDINATED_UNIVERSAL_TIME_OFFSET ( 8, 0, .AHEAD. ) ;
#162 = PERSON ( 'æœª', 'æœª', 'æœª', ('æœª'), ('æœª'), ('æœª') ) ;
#163 = DIRECTION ( 'NONE',  ( 1.000000000000000000, 0.000000000000000000, 0.000000000000000000 ) ) ;
#164 =( GEOMETRIC_REPRESENTATION_CONTEXT ( 3 ) GLOBAL_UNCERTAINTY_ASSIGNED_CONTEXT ( ( #82 ) ) GLOBAL_UNIT_ASSIGNED_CONTEXT ( ( #84, #88, #92 ) ) REPRESENTATION_CONTEXT ( 'NONE', 'WORKASPACE' ) );
#165 = COORDINATED_UNIVERSAL_TIME_OFFSET ( 8, 0, .AHEAD. ) ;
#166 = CC_DESIGN_PERSON_AND_ORGANIZATION_ASSIGNMENT ( #39, #305, ( #218 ) ) ;
#167 = AXIS2_PLACEMENT_3D ( 'NONE', #74, #176, #151 ) ;
#168 = EDGE_LOOP ( 'NONE', ( #147, #22 ) ) ;
#169 = ORIENTED_EDGE ( 'NONE', *, *, #244, .T. ) ;
#170 = FACE_OUTER_BOUND ( 'NONE', #168, .T. ) ;
#171 = ORIENTED_EDGE ( 'NONE', *, *, #33, .T. ) ;
#172 = CARTESIAN_POINT ( 'NONE',  ( -1.000000000000000000, 1.316495309083404618E-15, 10.75000000000000000 ) ) ;
#173 = ORIENTED_EDGE ( 'NONE', *, *, #297, .F. ) ;
#174 = FACE_OUTER_BOUND ( 'NONE', #95, .T. ) ;
#175 = DIRECTION ( 'NONE',  ( 1.000000000000000000, -0.000000000000000000, -0.000000000000000000 ) ) ;
#176 = DIRECTION ( 'NONE',  ( -1.000000000000000000, 2.602085213965210950E-17, -0.000000000000000000 ) ) ;
#177 = ORIENTED_EDGE ( 'NONE', *, *, #19, .F. ) ;
#178 = DIRECTION ( 'NONE',  ( 0.000000000000000000, 0.000000000000000000, -1.000000000000000000 ) ) ;
#179 = DIRECTION ( 'NONE',  ( -6.982962677686267499E-15, 0.000000000000000000, 1.000000000000000000 ) ) ;
#180 = AXIS2_PLACEMENT_3D ( 'NONE', #269, #124, #41 ) ;
#181 = DIRECTION ( 'NONE',  ( 0.000000000000000000, 0.000000000000000000, -1.000000000000000000 ) ) ;
#182 = ORIENTED_EDGE ( 'NONE', *, *, #160, .F. ) ;
#183 = APPROVAL_STATUS ( 'not_yet_approved' ) ;
#184 = DIRECTION ( 'NONE',  ( 1.000000000000000000, 0.000000000000000000, 0.000000000000000000 ) ) ;
#185 = PERSON_AND_ORGANIZATION ( #162, #302 ) ;
#186 = LOCAL_TIME ( 12, 7, 49.00000000000000000, #165 ) ;
#187 = COORDINATED_UNIVERSAL_TIME_OFFSET ( 8, 0, .AHEAD. ) ;
#188 = EDGE_LOOP ( 'NONE', ( #70, #5 ) ) ;
#189 = VERTEX_POINT ( 'NONE', #100 ) ;
#190 = ADVANCED_FACE ( 'NONE', ( #2, #170 ), #130, .T. ) ;
#191 = EDGE_LOOP ( 'NONE', ( #182, #267, #120, #169 ) ) ;
#192 = FACE_BOUND ( 'NONE', #234, .T. ) ;
#193 = AXIS2_PLACEMENT_3D ( 'NONE', #277, #136, #229 ) ;
#194 = CARTESIAN_POINT ( 'NONE',  ( -1.500000000000001110, 3.903127820947819660E-17, 0.000000000000000000 ) ) ;
#195 = AXIS2_PLACEMENT_3D ( 'NONE', #194, #285, #270 ) ;
#196 = DIRECTION ( 'NONE',  ( 1.000000000000000000, 0.000000000000000000, 0.000000000000000000 ) ) ;
#197 = EDGE_CURVE ( 'NONE', #143, #308, #146, .T. ) ;
#198 = CARTESIAN_POINT ( 'NONE',  ( 0.000000000000000000, 0.000000000000000000, -10.75000000000000000 ) ) ;
#199 = LINE ( 'NONE', #172, #233 ) ;
#200 = FACE_OUTER_BOUND ( 'NONE', #191, .T. ) ;
#201 = APPROVAL_STATUS ( 'not_yet_approved' ) ;
#202 = VERTEX_POINT ( 'NONE', #239 ) ;
#203 = DATE_AND_TIME ( #119, #159 ) ;
#204 = CIRCLE ( 'NONE', #69, 10.75000000000000000 ) ;
#205 = DATE_AND_TIME ( #38, #186 ) ;
#206 = CIRCLE ( 'NONE', #193, 10.75000000000000000 ) ;
#207 = CARTESIAN_POINT ( 'NONE',  ( 0.000000000000000000, 0.000000000000000000, 0.000000000000000000 ) ) ;
#208 = APPROVAL_ROLE ( '' ) ;
#209 = APPROVAL_DATE_TIME ( #20, #31 ) ;
#210 = ORIENTED_EDGE ( 'NONE', *, *, #132, .T. ) ;
#211 = ORIENTED_EDGE ( 'NONE', *, *, #296, .T. ) ;
#212 = CARTESIAN_POINT ( 'NONE',  ( -2.000000000000000000, 0.000000000000000000, 0.000000000000000000 ) ) ;
#213 = FACE_BOUND ( 'NONE', #1, .T. ) ;
#214 = ADVANCED_FACE ( 'NONE', ( #213, #44 ), #241, .T. ) ;
#215 = ORIENTED_EDGE ( 'NONE', *, *, #244, .F. ) ;
#216 = DIRECTION ( 'NONE',  ( 1.000000000000000000, 0.000000000000000000, 0.000000000000000000 ) ) ;
#217 = DIRECTION ( 'NONE',  ( -6.982962677686266711E-15, 0.000000000000000000, 1.000000000000000000 ) ) ;
#218 = PRODUCT ( '\X2\740394f063a553e3\X0\-\X2\4e0a\X0\&\X2\4e0b\X0\', '\X2\740394f063a553e3\X0\-\X2\4e0a\X0\&\X2\4e0b\X0\', '', ( #59 ) ) ;
#219 = LOCAL_TIME ( 12, 7, 49.00000000000000000, #161 ) ;
#220 = DIRECTION ( 'NONE',  ( 1.000000000000000000, -2.602085213965210950E-17, 0.000000000000000000 ) ) ;
#221 = CARTESIAN_POINT ( 'NONE',  ( 0.000000000000000000, 0.000000000000000000, 0.000000000000000000 ) ) ;
#222 = VERTEX_POINT ( 'NONE', #127 ) ;
#223 = DIRECTION ( 'NONE',  ( 1.000000000000000000, -2.602085213965210950E-17, 0.000000000000000000 ) ) ;
#224 = PRODUCT_DEFINITION_SHAPE ( 'NONE', 'NONE',  #135 ) ;
#225 = CC_DESIGN_APPROVAL ( #111, ( #135 ) ) ;
#226 = DIRECTION ( 'NONE',  ( 1.000000000000000000, -2.602085213965210950E-17, 0.000000000000000000 ) ) ;
#227 = AXIS2_PLACEMENT_3D ( 'NONE', #237, #196, #292 ) ;
#228 = CC_DESIGN_PERSON_AND_ORGANIZATION_ASSIGNMENT ( #64, #262, ( #145 ) ) ;
#229 = DIRECTION ( 'NONE',  ( 0.000000000000000000, 0.000000000000000000, -1.000000000000000000 ) ) ;
#230 = MANIFOLD_SOLID_BREP ( '\X2\52079664\X0\-\X2\62c94f38\X0\8', #85 ) ;
#231 = DATE_AND_TIME ( #34, #219 ) ;
#232 = SECURITY_CLASSIFICATION_LEVEL ( 'unclassified' ) ;
#233 = VECTOR ( 'NONE', #289, 1000.000000000000000 ) ;
#234 = EDGE_LOOP ( 'NONE', ( #215, #122 ) ) ;
#235 = CIRCLE ( 'NONE', #11, 9.500000000000000000 ) ;
#236 = APPROVAL_ROLE ( '' ) ;
#237 = CARTESIAN_POINT ( 'NONE',  ( 0.000000000000000000, 0.000000000000000000, 0.000000000000000000 ) ) ;
#238 = EDGE_LOOP ( 'NONE', ( #280, #293 ) ) ;
#239 = CARTESIAN_POINT ( 'NONE',  ( -1.000000000000000000, 1.163414459189985485E-15, 9.500000000000000000 ) ) ;
#240 = CYLINDRICAL_SURFACE ( 'NONE', #252, 10.75000000000000000 ) ;
#241 = SPHERICAL_SURFACE ( 'NONE', #102, 11.19999999999999929 ) ;
#242 = PLANE ( 'NONE',  #276 ) ;
#243 = CARTESIAN_POINT ( 'NONE',  ( -2.000000000000000000, 0.000000000000000000, 0.000000000000000000 ) ) ;
#244 = EDGE_CURVE ( 'NONE', #47, #189, #204, .T. ) ;
#245 = CIRCLE ( 'NONE', #133, 11.19999999999999929 ) ;
#246 = CARTESIAN_POINT ( 'NONE',  ( -1.000000000000000000, 1.316495309083404618E-15, 10.75000000000000000 ) ) ;
#247 = PRODUCT_RELATED_PRODUCT_CATEGORY ( 'detail', '', ( #218 ) ) ;
#248 = AXIS2_PLACEMENT_3D ( 'NONE', #25, #220, #104 ) ;
#249 = APPROVAL_PERSON_ORGANIZATION ( #304, #142, #208 ) ;
#250 = ADVANCED_FACE ( 'NONE', ( #150 ), #78, .F. ) ;
#251 = FACE_OUTER_BOUND ( 'NONE', #60, .T. ) ;
#252 = AXIS2_PLACEMENT_3D ( 'NONE', #144, #123, #152 ) ;
#253 = APPLICATION_CONTEXT ( 'configuration controlled 3d designs of mechanical parts and assemblies' ) ;
#254 = DIRECTION ( 'NONE',  ( 2.602085213965210950E-17, 1.000000000000000000, 0.000000000000000000 ) ) ;
#255 = DESIGN_CONTEXT ( 'detailed design', #4, 'design' ) ;
#256 = CC_DESIGN_DATE_AND_TIME_ASSIGNMENT ( #203, #117, ( #135 ) ) ;
#257 = LINE ( 'NONE', #158, #52 ) ;
#258 = AXIS2_PLACEMENT_3D ( 'NONE', #268, #223, #99 ) ;
#259 = APPROVAL_ROLE ( '' ) ;
#260 = APPLICATION_PROTOCOL_DEFINITION ( 'international standard', 'config_control_design', 1994, #253 ) ;
#261 = ORIENTED_EDGE ( 'NONE', *, *, #160, .T. ) ;
#262 = PERSON_AND_ORGANIZATION_ROLE ( 'classification_officer' ) ;
#263 = CIRCLE ( 'NONE', #248, 9.500000000000000000 ) ;
#264 = ORIENTED_EDGE ( 'NONE', *, *, #265, .F. ) ;
#265 = EDGE_CURVE ( 'NONE', #149, #128, #245, .T. ) ;
#266 = ORIENTED_EDGE ( 'NONE', *, *, #96, .F. ) ;
#267 = ORIENTED_EDGE ( 'NONE', *, *, #57, .F. ) ;
#268 = CARTESIAN_POINT ( 'NONE',  ( -1.500000000000000888, 0.000000000000000000, 0.000000000000000000 ) ) ;
#269 = CARTESIAN_POINT ( 'NONE',  ( -1.000000000000000000, 0.000000000000000000, 0.000000000000000000 ) ) ;
#270 = DIRECTION ( 'NONE',  ( 1.953675999063879737E-17, 1.000000000000000000, 0.000000000000000000 ) ) ;
#271 = DIRECTION ( 'NONE',  ( 1.000000000000000000, 0.000000000000000000, 0.000000000000000000 ) ) ;
#272 = DIRECTION ( 'NONE',  ( 1.000000000000000000, -0.000000000000000000, -0.000000000000000000 ) ) ;
#273 = CARTESIAN_POINT ( 'NONE',  ( -2.000000000000000000, 0.000000000000000000, -9.500000000000000000 ) ) ;
#274 = VERTEX_POINT ( 'NONE', #51 ) ;
#275 = CC_DESIGN_DATE_AND_TIME_ASSIGNMENT ( #205, #91, ( #145 ) ) ;
#276 = AXIS2_PLACEMENT_3D ( 'NONE', #207, #284, #108 ) ;
#277 = CARTESIAN_POINT ( 'NONE',  ( -1.000000000000000000, 0.000000000000000000, 0.000000000000000000 ) ) ;
#278 = APPROVAL_DATE_TIME ( #279, #142 ) ;
#279 = DATE_AND_TIME ( #303, #80 ) ;
#280 = ORIENTED_EDGE ( 'NONE', *, *, #19, .T. ) ;
#281 = ORIENTED_EDGE ( 'NONE', *, *, #14, .T. ) ;
#282 = EDGE_CURVE ( 'NONE', #189, #47, #3, .T. ) ;
#283 = ORIENTED_EDGE ( 'NONE', *, *, #14, .F. ) ;
#284 = DIRECTION ( 'NONE',  ( -1.000000000000000000, 0.000000000000000000, -6.982962677686266711E-15 ) ) ;
#285 = DIRECTION ( 'NONE',  ( -1.000000000000000000, 2.602085213965210950E-17, -0.000000000000000000 ) ) ;
#286 = CARTESIAN_POINT ( 'NONE',  ( -1.500000000000000888, 5.642372883946980722E-33, -9.500000000000000000 ) ) ;
#287 = LOCAL_TIME ( 12, 7, 49.00000000000000000, #141 ) ;
#288 = ORIENTED_EDGE ( 'NONE', *, *, #265, .T. ) ;
#289 = DIRECTION ( 'NONE',  ( 1.000000000000000000, -0.000000000000000000, -0.000000000000000000 ) ) ;
#290 = CARTESIAN_POINT ( 'NONE',  ( -1.500000000000001332, -11.09909906253656153, 1.359247614035478886E-15 ) ) ;
#291 = CARTESIAN_POINT ( 'NONE',  ( -1.000000000000000000, 0.000000000000000000, 0.000000000000000000 ) ) ;
#292 = DIRECTION ( 'NONE',  ( 0.000000000000000000, 0.000000000000000000, -1.000000000000000000 ) ) ;
#293 = ORIENTED_EDGE ( 'NONE', *, *, #139, .T. ) ;
#294 = DIRECTION ( 'NONE',  ( 1.000000000000000000, 0.000000000000000000, 6.982962677686266711E-15 ) ) ;
#295 = AXIS2_PLACEMENT_3D ( 'NONE', #126, #216, #71 ) ;
#296 = EDGE_CURVE ( 'NONE', #128, #149, #110, .T. ) ;
#297 = EDGE_CURVE ( 'NONE', #137, #47, #156, .T. ) ;
#298 = CYLINDRICAL_SURFACE ( 'NONE', #97, 10.75000000000000000 ) ;
#299 = CIRCLE ( 'NONE', #167, 11.09909906253656153 ) ;
#300 = APPROVAL_DATE_TIME ( #231, #111 ) ;
#301 = EDGE_LOOP ( 'NONE', ( #7, #98, #35, #45 ) ) ;
#302 = ORGANIZATION ( 'æœª', 'æœª', '' ) ;
#303 = CALENDAR_DATE ( 2026, 21, 5 ) ;
#304 = PERSON_AND_ORGANIZATION ( #162, #302 ) ;
#305 = PERSON_AND_ORGANIZATION_ROLE ( 'design_owner' ) ;
#306 = ADVANCED_FACE ( 'NONE', ( #53, #251 ), #29, .F. ) ;
#307 = SHAPE_DEFINITION_REPRESENTATION ( #224, #55 ) ;
#308 = VERTEX_POINT ( 'NONE', #10 ) ;
#309 = DIRECTION ( 'NONE',  ( 0.000000000000000000, 0.000000000000000000, -1.000000000000000000 ) ) ;
ENDSEC;
END-ISO-10303-21;
