ISO-10303-21;
HEADER;
FILE_DESCRIPTION (( 'STEP AP203' ),
    '1' );
FILE_NAME ('Çò½Â - ¸Ë1.STEP',
    '2026-05-05T05:00:33',
    ( '' ),
    ( '' ),
    'SwSTEP 2.0',
    'SolidWorks 2025',
    '' );
FILE_SCHEMA (( 'CONFIG_CONTROL_DESIGN' ));
ENDSEC;

DATA;
#1 = LOCAL_TIME ( 13, 0, 33.00000000000000000, #19 ) ;
#2 = CALENDAR_DATE ( 2026, 5, 5 ) ;
#3 = CIRCLE ( 'NONE', #163, 6.499999999999999112 ) ;
#4 = PERSON_AND_ORGANIZATION ( #43, #54 ) ;
#5 = APPROVAL_DATE_TIME ( #108, #195 ) ;
#6 = APPROVAL_STATUS ( 'not_yet_approved' ) ;
#7 = CC_DESIGN_PERSON_AND_ORGANIZATION_ASSIGNMENT ( #171, #93, ( #140 ) ) ;
#8 = SECURITY_CLASSIFICATION_LEVEL ( 'unclassified' ) ;
#9 = PERSON_AND_ORGANIZATION ( #43, #54 ) ;
#10 = EDGE_LOOP ( 'NONE', ( #79, #114, #44, #172 ) ) ;
#11 = DATE_AND_TIME ( #96, #193 ) ;
#12 = VERTEX_POINT ( 'NONE', #115 ) ;
#13 = PRODUCT_DEFINITION_FORMATION_WITH_SPECIFIED_SOURCE ( 'ä»', '', #140, .NOT_KNOWN. ) ;
#14 = ORIENTED_EDGE ( 'NONE', *, *, #25, .F. ) ;
#15 = DIRECTION ( 'NONE',  ( 0.000000000000000000, 0.000000000000000000, 1.000000000000000000 ) ) ;
#16 = DIRECTION ( 'NONE',  ( -1.000000000000000000, -6.982962677686266711E-15, 0.000000000000000000 ) ) ;
#17 = FACE_OUTER_BOUND ( 'NONE', #10, .T. ) ;
#18 = VECTOR ( 'NONE', #157, 1000.000000000000000 ) ;
#19 = COORDINATED_UNIVERSAL_TIME_OFFSET ( 8, 0, .AHEAD. ) ;
#20 = APPROVAL ( #6, 'æœª' ) ;
#21 = CIRCLE ( 'NONE', #53, 7.799999999999999822 ) ;
#22 = PERSON_AND_ORGANIZATION ( #43, #54 ) ;
#23 =( GEOMETRIC_REPRESENTATION_CONTEXT ( 3 ) GLOBAL_UNCERTAINTY_ASSIGNED_CONTEXT ( ( #32 ) ) GLOBAL_UNIT_ASSIGNED_CONTEXT ( ( #92, #90, #56 ) ) REPRESENTATION_CONTEXT ( 'NONE', 'WORKASPACE' ) );
#24 = MECHANICAL_CONTEXT ( 'NONE', #72, 'mechanical' ) ;
#25 = EDGE_CURVE ( 'NONE', #12, #142, #187, .T. ) ;
#26 = ORIENTED_EDGE ( 'NONE', *, *, #147, .T. ) ;
#27 = CIRCLE ( 'NONE', #47, 7.799999999999999822 ) ;
#28 = DIRECTION ( 'NONE',  ( -0.000000000000000000, 1.000000000000000000, 2.959234164901611696E-16 ) ) ;
#29 = FACE_OUTER_BOUND ( 'NONE', #83, .T. ) ;
#30 = CC_DESIGN_PERSON_AND_ORGANIZATION_ASSIGNMENT ( #4, #41, ( #132 ) ) ;
#31 = DIRECTION ( 'NONE',  ( 0.000000000000000000, 0.000000000000000000, 1.000000000000000000 ) ) ;
#32 = UNCERTAINTY_MEASURE_WITH_UNIT (LENGTH_MEASURE( 1.000000000000000082E-05 ), #92, 'distance_accuracy_value', 'NONE');
#33 = CARTESIAN_POINT ( 'NONE',  ( 4.114813245135106342E-15, 1.436679365821378120E-29, 7.799999999999999822 ) ) ;
#34 = DIRECTION ( 'NONE',  ( -0.000000000000000000, 1.000000000000000000, 2.959234164901611696E-16 ) ) ;
#35 = DIRECTION ( 'NONE',  ( 0.000000000000000000, -2.959234164901611696E-16, 1.000000000000000000 ) ) ;
#36 = AXIS2_PLACEMENT_3D ( 'NONE', #175, #98, #64 ) ;
#37 = PERSON_AND_ORGANIZATION ( #43, #54 ) ;
#38 = CALENDAR_DATE ( 2026, 5, 5 ) ;
#39 = PERSON_AND_ORGANIZATION_ROLE ( 'design_supplier' ) ;
#40 = LOCAL_TIME ( 13, 0, 33.00000000000000000, #45 ) ;
#41 = PERSON_AND_ORGANIZATION_ROLE ( 'classification_officer' ) ;
#42 = PERSON_AND_ORGANIZATION ( #43, #54 ) ;
#43 = PERSON ( 'æœª', 'æœª', 'æœª', ('æœª'), ('æœª'), ('æœª') ) ;
#44 = ORIENTED_EDGE ( 'NONE', *, *, #25, .T. ) ;
#45 = COORDINATED_UNIVERSAL_TIME_OFFSET ( 8, 0, .AHEAD. ) ;
#46 = CARTESIAN_POINT ( 'NONE',  ( 0.000000000000000000, -1.923502207186047356E-15, 6.499999999999999112 ) ) ;
#47 = AXIS2_PLACEMENT_3D ( 'NONE', #176, #82, #15 ) ;
#48 = EDGE_CURVE ( 'NONE', #189, #145, #174, .T. ) ;
#49 = EDGE_LOOP ( 'NONE', ( #154, #198 ) ) ;
#50 = ORIENTED_EDGE ( 'NONE', *, *, #106, .F. ) ;
#51 = FACE_OUTER_BOUND ( 'NONE', #49, .T. ) ;
#52 = DIRECTION ( 'NONE',  ( 0.000000000000000000, 0.000000000000000000, 1.000000000000000000 ) ) ;
#53 = AXIS2_PLACEMENT_3D ( 'NONE', #69, #178, #31 ) ;
#54 = ORGANIZATION ( 'æœª', 'æœª', '' ) ;
#55 = CARTESIAN_POINT ( 'NONE',  ( 0.000000000000000000, 0.000000000000000000, 0.000000000000000000 ) ) ;
#56 =( NAMED_UNIT ( * ) SI_UNIT ( $, .STERADIAN. ) SOLID_ANGLE_UNIT ( ) );
#57 = DIRECTION ( 'NONE',  ( 1.000000000000000000, 0.000000000000000000, 0.000000000000000000 ) ) ;
#58 = COORDINATED_UNIVERSAL_TIME_OFFSET ( 8, 0, .AHEAD. ) ;
#59 = APPROVAL_ROLE ( '' ) ;
#60 = ORIENTED_EDGE ( 'NONE', *, *, #61, .T. ) ;
#61 = EDGE_CURVE ( 'NONE', #62, #185, #27, .T. ) ;
#62 = VERTEX_POINT ( 'NONE', #138 ) ;
#63 = AXIS2_PLACEMENT_3D ( 'NONE', #203, #130, #191 ) ;
#64 = DIRECTION ( 'NONE',  ( 0.000000000000000000, -2.959234164901611696E-16, 1.000000000000000000 ) ) ;
#65 = PRODUCT_DEFINITION ( 'æœ', '', #13, #70 ) ;
#66 = CYLINDRICAL_SURFACE ( 'NONE', #36, 6.499999999999999112 ) ;
#67 = ORIENTED_EDGE ( 'NONE', *, *, #122, .T. ) ;
#68 = FACE_OUTER_BOUND ( 'NONE', #160, .T. ) ;
#69 = CARTESIAN_POINT ( 'NONE',  ( 4.114813245135106342E-15, 1.436679365821378120E-29, 0.000000000000000000 ) ) ;
#70 = DESIGN_CONTEXT ( 'detailed design', #155, 'design' ) ;
#71 = AXIS2_PLACEMENT_3D ( 'NONE', #55, #34, #74 ) ;
#72 = APPLICATION_CONTEXT ( 'configuration controlled 3d designs of mechanical parts and assemblies' ) ;
#73 = CARTESIAN_POINT ( 'NONE',  ( 0.000000000000000000, 0.000000000000000000, 0.000000000000000000 ) ) ;
#74 = DIRECTION ( 'NONE',  ( 0.000000000000000000, -2.959234164901611696E-16, 1.000000000000000000 ) ) ;
#75 = EDGE_CURVE ( 'NONE', #145, #142, #3, .T. ) ;
#76 = COORDINATED_UNIVERSAL_TIME_OFFSET ( 8, 0, .AHEAD. ) ;
#77 = DATE_AND_TIME ( #78, #40 ) ;
#78 = CALENDAR_DATE ( 2026, 5, 5 ) ;
#79 = ORIENTED_EDGE ( 'NONE', *, *, #48, .F. ) ;
#80 = PERSON_AND_ORGANIZATION ( #43, #54 ) ;
#81 = ADVANCED_FACE ( 'NONE', ( #29 ), #66, .T. ) ;
#82 = DIRECTION ( 'NONE',  ( 6.982962677686266711E-15, -1.000000000000000000, 0.000000000000000000 ) ) ;
#83 = EDGE_LOOP ( 'NONE', ( #26, #136, #50, #14 ) ) ;
#84 = AXIS2_PLACEMENT_3D ( 'NONE', #131, #146, #177 ) ;
#85 = DIRECTION ( 'NONE',  ( 0.000000000000000000, -2.959234164901611696E-16, 1.000000000000000000 ) ) ;
#86 = CARTESIAN_POINT ( 'NONE',  ( 7.960204194457794491E-16, 0.000000000000000000, -6.499999999999999112 ) ) ;
#87 = CC_DESIGN_DATE_AND_TIME_ASSIGNMENT ( #94, #186, ( #65 ) ) ;
#88 = ADVANCED_FACE ( 'NONE', ( #128, #116 ), #161, .T. ) ;
#89 = ADVANCED_FACE ( 'NONE', ( #68 ), #117, .F. ) ;
#90 =( NAMED_UNIT ( * ) PLANE_ANGLE_UNIT ( ) SI_UNIT ( $, .RADIAN. ) );
#91 = CC_DESIGN_APPROVAL ( #195, ( #132 ) ) ;
#92 =( LENGTH_UNIT ( ) NAMED_UNIT ( * ) SI_UNIT ( .MILLI., .METRE. ) );
#93 = PERSON_AND_ORGANIZATION_ROLE ( 'design_owner' ) ;
#94 = DATE_AND_TIME ( #2, #1 ) ;
#95 = EDGE_LOOP ( 'NONE', ( #125, #101 ) ) ;
#96 = CALENDAR_DATE ( 2026, 5, 5 ) ;
#97 = CARTESIAN_POINT ( 'NONE',  ( 7.960204194457794491E-16, 1.923502207186047356E-15, -6.499999999999999112 ) ) ;
#98 = DIRECTION ( 'NONE',  ( -0.000000000000000000, 1.000000000000000000, 2.959234164901611696E-16 ) ) ;
#99 = CC_DESIGN_PERSON_AND_ORGANIZATION_ASSIGNMENT ( #184, #39, ( #13 ) ) ;
#100 = PRODUCT_DEFINITION_SHAPE ( 'NONE', 'NONE',  #65 ) ;
#101 = ORIENTED_EDGE ( 'NONE', *, *, #75, .T. ) ;
#102 = CARTESIAN_POINT ( 'NONE',  ( 4.114813245135106342E-15, 1.436679365821378120E-29, 0.000000000000000000 ) ) ;
#103 = CC_DESIGN_SECURITY_CLASSIFICATION ( #132, ( #13 ) ) ;
#104 = CARTESIAN_POINT ( 'NONE',  ( 4.114813245135106342E-15, 1.436679365821378120E-29, 0.000000000000000000 ) ) ;
#105 = CARTESIAN_POINT ( 'NONE',  ( 0.000000000000000000, -3.847004414372094712E-15, 6.499999999999999112 ) ) ;
#106 = EDGE_CURVE ( 'NONE', #142, #145, #134, .T. ) ;
#107 = DATE_AND_TIME ( #38, #139 ) ;
#108 = DATE_AND_TIME ( #173, #158 ) ;
#109 = AXIS2_PLACEMENT_3D ( 'NONE', #73, #135, #57 ) ;
#110 = CLOSED_SHELL ( 'NONE', ( #81, #144, #88, #89, #197 ) ) ;
#111 = AXIS2_PLACEMENT_3D ( 'NONE', #102, #180, #16 ) ;
#112 = AXIS2_PLACEMENT_3D ( 'NONE', #204, #118, #35 ) ;
#113 = APPROVAL_DATE_TIME ( #11, #143 ) ;
#114 = ORIENTED_EDGE ( 'NONE', *, *, #123, .T. ) ;
#115 = CARTESIAN_POINT ( 'NONE',  ( 0.000000000000000000, -85.00000000000000000, 6.499999999999974243 ) ) ;
#116 = FACE_OUTER_BOUND ( 'NONE', #202, .T. ) ;
#117 = PLANE ( 'NONE',  #112 ) ;
#118 = DIRECTION ( 'NONE',  ( -0.000000000000000000, 1.000000000000000000, 2.959234164901611696E-16 ) ) ;
#119 = DIRECTION ( 'NONE',  ( -0.000000000000000000, 1.000000000000000000, 2.959234164901611696E-16 ) ) ;
#120 = CC_DESIGN_PERSON_AND_ORGANIZATION_ASSIGNMENT ( #22, #149, ( #65 ) ) ;
#121 = APPROVAL_STATUS ( 'not_yet_approved' ) ;
#122 = EDGE_CURVE ( 'NONE', #185, #62, #21, .T. ) ;
#123 = EDGE_CURVE ( 'NONE', #189, #12, #167, .T. ) ;
#124 = AXIS2_PLACEMENT_3D ( 'NONE', #164, #119, #192 ) ;
#125 = ORIENTED_EDGE ( 'NONE', *, *, #106, .T. ) ;
#126 = MANIFOLD_SOLID_BREP ( '\X2\65cb8f6c\X0\2', #110 ) ;
#127 = AXIS2_PLACEMENT_3D ( 'NONE', #104, #190, #52 ) ;
#128 = FACE_BOUND ( 'NONE', #95, .T. ) ;
#129 = SPHERICAL_SURFACE ( 'NONE', #111, 7.799999999999999822 ) ;
#130 = DIRECTION ( 'NONE',  ( -0.000000000000000000, 1.000000000000000000, 2.959234164901611696E-16 ) ) ;
#131 = CARTESIAN_POINT ( 'NONE',  ( 0.000000000000000000, -85.00000000000000000, -2.515349040166369971E-14 ) ) ;
#132 = SECURITY_CLASSIFICATION ( '', '', #8 ) ;
#133 = APPROVAL_ROLE ( '' ) ;
#134 = CIRCLE ( 'NONE', #124, 6.499999999999999112 ) ;
#135 = DIRECTION ( 'NONE',  ( 0.000000000000000000, 0.000000000000000000, 1.000000000000000000 ) ) ;
#136 = ORIENTED_EDGE ( 'NONE', *, *, #48, .T. ) ;
#137 = CC_DESIGN_DATE_AND_TIME_ASSIGNMENT ( #77, #196, ( #132 ) ) ;
#138 = CARTESIAN_POINT ( 'NONE',  ( 3.159588741800171082E-15, 7.696496602614525141E-30, -7.799999999999999822 ) ) ;
#139 = LOCAL_TIME ( 13, 0, 33.00000000000000000, #76 ) ;
#140 = PRODUCT ( '\X2\740394f0\X0\ - \X2\6746\X0\1', '\X2\740394f0\X0\ - \X2\6746\X0\1', '', ( #24 ) ) ;
#141 = ORIENTED_EDGE ( 'NONE', *, *, #147, .F. ) ;
#142 = VERTEX_POINT ( 'NONE', #105 ) ;
#143 = APPROVAL ( #121, 'æœª' ) ;
#144 = ADVANCED_FACE ( 'NONE', ( #51 ), #129, .T. ) ;
#145 = VERTEX_POINT ( 'NONE', #86 ) ;
#146 = DIRECTION ( 'NONE',  ( -0.000000000000000000, 1.000000000000000000, 2.959234164901611696E-16 ) ) ;
#147 = EDGE_CURVE ( 'NONE', #12, #189, #194, .T. ) ;
#148 = CYLINDRICAL_SURFACE ( 'NONE', #71, 6.499999999999999112 ) ;
#149 = PERSON_AND_ORGANIZATION_ROLE ( 'creator' ) ;
#150 = APPROVAL_STATUS ( 'not_yet_approved' ) ;
#151 = COORDINATED_UNIVERSAL_TIME_OFFSET ( 8, 0, .AHEAD. ) ;
#152 = APPROVAL_ROLE ( '' ) ;
#153 = ADVANCED_BREP_SHAPE_REPRESENTATION ( '\X2\740394f0\X0\ - \X2\6746\X0\1', ( #126, #109 ), #23 ) ;
#154 = ORIENTED_EDGE ( 'NONE', *, *, #122, .F. ) ;
#155 = APPLICATION_CONTEXT ( 'configuration controlled 3d designs of mechanical parts and assemblies' ) ;
#156 = PERSON_AND_ORGANIZATION_ROLE ( 'creator' ) ;
#157 = DIRECTION ( 'NONE',  ( -0.000000000000000000, 1.000000000000000000, 2.959234164901611696E-16 ) ) ;
#158 = LOCAL_TIME ( 13, 0, 33.00000000000000000, #58 ) ;
#159 = ORIENTED_EDGE ( 'NONE', *, *, #123, .F. ) ;
#160 = EDGE_LOOP ( 'NONE', ( #141, #159 ) ) ;
#161 = PLANE ( 'NONE',  #127 ) ;
#162 = CARTESIAN_POINT ( 'NONE',  ( 7.960204194457812240E-16, -85.00000000000000000, -6.500000000000025757 ) ) ;
#163 = AXIS2_PLACEMENT_3D ( 'NONE', #200, #188, #85 ) ;
#164 = CARTESIAN_POINT ( 'NONE',  ( 0.000000000000000000, -1.923502207186047356E-15, -5.692093447768608574E-31 ) ) ;
#165 = APPROVAL_DATE_TIME ( #107, #20 ) ;
#166 = APPLICATION_PROTOCOL_DEFINITION ( 'international standard', 'config_control_design', 1994, #72 ) ;
#167 = CIRCLE ( 'NONE', #84, 6.500000000000000000 ) ;
#168 = APPROVAL_PERSON_ORGANIZATION ( #80, #143, #152 ) ;
#169 = SHAPE_DEFINITION_REPRESENTATION ( #100, #153 ) ;
#170 = CC_DESIGN_PERSON_AND_ORGANIZATION_ASSIGNMENT ( #42, #156, ( #13 ) ) ;
#171 = PERSON_AND_ORGANIZATION ( #43, #54 ) ;
#172 = ORIENTED_EDGE ( 'NONE', *, *, #75, .F. ) ;
#173 = CALENDAR_DATE ( 2026, 5, 5 ) ;
#174 = LINE ( 'NONE', #97, #18 ) ;
#175 = CARTESIAN_POINT ( 'NONE',  ( 0.000000000000000000, 0.000000000000000000, 0.000000000000000000 ) ) ;
#176 = CARTESIAN_POINT ( 'NONE',  ( 4.114813245135106342E-15, 1.436679365821378120E-29, 0.000000000000000000 ) ) ;
#177 = DIRECTION ( 'NONE',  ( 0.000000000000000000, 0.000000000000000000, 1.000000000000000000 ) ) ;
#178 = DIRECTION ( 'NONE',  ( 6.982962677686266711E-15, -1.000000000000000000, 0.000000000000000000 ) ) ;
#179 = CC_DESIGN_APPROVAL ( #20, ( #65 ) ) ;
#180 = DIRECTION ( 'NONE',  ( -6.982962677686266711E-15, 1.000000000000000000, 0.000000000000000000 ) ) ;
#181 = VECTOR ( 'NONE', #28, 1000.000000000000000 ) ;
#182 = APPLICATION_PROTOCOL_DEFINITION ( 'international standard', 'config_control_design', 1994, #155 ) ;
#183 = CC_DESIGN_APPROVAL ( #143, ( #13 ) ) ;
#184 = PERSON_AND_ORGANIZATION ( #43, #54 ) ;
#185 = VERTEX_POINT ( 'NONE', #33 ) ;
#186 = DATE_TIME_ROLE ( 'creation_date' ) ;
#187 = LINE ( 'NONE', #46, #181 ) ;
#188 = DIRECTION ( 'NONE',  ( -0.000000000000000000, 1.000000000000000000, 2.959234164901611696E-16 ) ) ;
#189 = VERTEX_POINT ( 'NONE', #162 ) ;
#190 = DIRECTION ( 'NONE',  ( 6.982962677686266711E-15, -1.000000000000000000, 0.000000000000000000 ) ) ;
#191 = DIRECTION ( 'NONE',  ( 0.000000000000000000, 0.000000000000000000, 1.000000000000000000 ) ) ;
#192 = DIRECTION ( 'NONE',  ( 0.000000000000000000, -2.959234164901611696E-16, 1.000000000000000000 ) ) ;
#193 = LOCAL_TIME ( 13, 0, 33.00000000000000000, #151 ) ;
#194 = CIRCLE ( 'NONE', #63, 6.500000000000000000 ) ;
#195 = APPROVAL ( #150, 'æœª' ) ;
#196 = DATE_TIME_ROLE ( 'classification_date' ) ;
#197 = ADVANCED_FACE ( 'NONE', ( #17 ), #148, .T. ) ;
#198 = ORIENTED_EDGE ( 'NONE', *, *, #61, .F. ) ;
#199 = APPROVAL_PERSON_ORGANIZATION ( #37, #20, #133 ) ;
#200 = CARTESIAN_POINT ( 'NONE',  ( 0.000000000000000000, -1.923502207186047356E-15, -5.692093447768608574E-31 ) ) ;
#201 = PRODUCT_RELATED_PRODUCT_CATEGORY ( 'detail', '', ( #140 ) ) ;
#202 = EDGE_LOOP ( 'NONE', ( #67, #60 ) ) ;
#203 = CARTESIAN_POINT ( 'NONE',  ( 0.000000000000000000, -85.00000000000000000, -2.515349040166369971E-14 ) ) ;
#204 = CARTESIAN_POINT ( 'NONE',  ( 0.000000000000000000, -85.00000000000000000, -2.515349040166370287E-14 ) ) ;
#205 = APPROVAL_PERSON_ORGANIZATION ( #9, #195, #59 ) ;
ENDSEC;
END-ISO-10303-21;
